%TF.GenerationSoftware,Altium Limited,Altium Designer,21.8.1 (53)*%
G04 Layer_Color=32896*
%FSLAX26Y26*%
%MOIN*%
%TF.SameCoordinates,2531CBD8-4BF0-4D0B-A877-44D4BE5F07E3*%
%TF.FilePolarity,Positive*%
%TF.FileFunction,Legend,Bot*%
%TF.Part,Single*%
G01*
G75*
%TA.AperFunction,NonConductor*%
%ADD24C,0.009842*%
%ADD25C,0.007874*%
G36*
X299564Y318624D02*
X300155Y318558D01*
X301139Y318099D01*
X302057Y317508D01*
X302844Y316852D01*
X303500Y316196D01*
X303959Y315606D01*
X304222Y315147D01*
X304353Y315081D01*
Y315016D01*
X304419D01*
Y318230D01*
X309536D01*
Y289235D01*
X304419D01*
Y310752D01*
X304025Y311342D01*
X303632Y311932D01*
X303303Y312392D01*
X302910Y312785D01*
X302254Y313376D01*
X301663Y313769D01*
X301139Y314032D01*
X300745Y314163D01*
X300483Y314228D01*
X300417D01*
X299892Y314163D01*
X299499Y314032D01*
X299105Y313835D01*
X298777Y313572D01*
X298252Y312851D01*
X297924Y312064D01*
X297728Y311211D01*
X297662Y310555D01*
X297596Y310227D01*
Y310030D01*
Y309899D01*
Y309833D01*
Y289235D01*
X292479D01*
Y310817D01*
X292086Y311408D01*
X291758Y311932D01*
X291364Y312392D01*
X291036Y312785D01*
X290380Y313376D01*
X289724Y313835D01*
X289200Y314032D01*
X288806Y314163D01*
X288478Y314228D01*
X288412D01*
X287953Y314163D01*
X287494Y314032D01*
X287100Y313835D01*
X286838Y313572D01*
X286313Y312851D01*
X285985Y312064D01*
X285788Y311276D01*
X285723Y310555D01*
X285657Y310292D01*
Y310096D01*
Y309964D01*
Y309899D01*
Y289235D01*
X280540D01*
Y310096D01*
X280606Y311539D01*
X280803Y312851D01*
X281131Y313900D01*
X281459Y314819D01*
X281787Y315540D01*
X282115Y316065D01*
X282312Y316328D01*
X282377Y316459D01*
X283099Y317180D01*
X283820Y317771D01*
X284608Y318164D01*
X285395Y318427D01*
X286051Y318558D01*
X286575Y318689D01*
X287035D01*
X287756Y318624D01*
X288347Y318492D01*
X288937Y318361D01*
X289396Y318164D01*
X289724Y317902D01*
X290052Y317771D01*
X290183Y317640D01*
X290249Y317574D01*
X290708Y317115D01*
X291168Y316590D01*
X292086Y315540D01*
X292414Y315081D01*
X292742Y314688D01*
X292939Y314425D01*
X293004Y314294D01*
X293398Y315081D01*
X293857Y315737D01*
X294382Y316328D01*
X294841Y316852D01*
X295366Y317246D01*
X295825Y317640D01*
X296809Y318164D01*
X297662Y318427D01*
X298318Y318624D01*
X298580Y318689D01*
X298974D01*
X299564Y318624D01*
D02*
G37*
G36*
X324689Y318952D02*
X325411Y318886D01*
X326067Y318689D01*
X326788Y318427D01*
X328035Y317836D01*
X329216Y317115D01*
X330200Y316393D01*
X330659Y316065D01*
X330987Y315803D01*
X331249Y315540D01*
X331446Y315409D01*
X331577Y315278D01*
X331643Y315212D01*
Y309374D01*
X330856Y310227D01*
X330134Y310948D01*
X329412Y311604D01*
X328756Y312195D01*
X328166Y312654D01*
X327510Y313048D01*
X326985Y313376D01*
X326460Y313638D01*
X325608Y313966D01*
X324952Y314163D01*
X324755Y314228D01*
X324427D01*
X323902Y314163D01*
X323377Y314032D01*
X322983Y313900D01*
X322656Y313638D01*
X322065Y312982D01*
X321737Y312326D01*
X321475Y311604D01*
X321409Y310948D01*
X321344Y310686D01*
Y310555D01*
Y310424D01*
Y310358D01*
Y307603D01*
X322459Y306947D01*
X323508Y306291D01*
X324492Y305700D01*
X325345Y305110D01*
X326132Y304585D01*
X326854Y304126D01*
X327510Y303667D01*
X328035Y303208D01*
X328494Y302880D01*
X328953Y302552D01*
X329281Y302224D01*
X329543Y302027D01*
X329872Y301699D01*
X330003Y301568D01*
X330790Y300649D01*
X331380Y299665D01*
X331774Y298681D01*
X332036Y297763D01*
X332233Y296976D01*
X332299Y296320D01*
X332364Y296057D01*
Y295860D01*
Y295795D01*
Y295729D01*
X332299Y294680D01*
X332102Y293696D01*
X331839Y292843D01*
X331512Y292056D01*
X331249Y291465D01*
X330987Y291006D01*
X330790Y290744D01*
X330724Y290612D01*
X330068Y289891D01*
X329347Y289366D01*
X328691Y288972D01*
X328100Y288710D01*
X327510Y288579D01*
X327116Y288513D01*
X326854Y288448D01*
X326723D01*
X326198Y288513D01*
X325673Y288579D01*
X325214Y288776D01*
X324689Y289038D01*
X323771Y289628D01*
X322918Y290350D01*
X322196Y291006D01*
X321671Y291596D01*
X321475Y291859D01*
X321344Y292056D01*
X321212Y292121D01*
Y292187D01*
X321015Y291531D01*
X320753Y291006D01*
X320491Y290547D01*
X320228Y290088D01*
X319572Y289432D01*
X318982Y289038D01*
X318392Y288776D01*
X317867Y288644D01*
X317539Y288579D01*
X317408D01*
X316752Y288644D01*
X316096Y288907D01*
X315440Y289235D01*
X314784Y289694D01*
X314259Y290088D01*
X313800Y290416D01*
X313537Y290678D01*
X313406Y290744D01*
Y294680D01*
X313931Y294220D01*
X314390Y293827D01*
X314718Y293564D01*
X314980Y293433D01*
X315177Y293302D01*
X315308Y293236D01*
X315440D01*
X315702Y293302D01*
X315899Y293499D01*
X316030Y293761D01*
X316096Y294089D01*
X316161Y294352D01*
X316227Y294614D01*
Y294811D01*
Y294876D01*
Y311211D01*
X316292Y312457D01*
X316555Y313572D01*
X316948Y314556D01*
X317342Y315344D01*
X317801Y316000D01*
X318129Y316459D01*
X318392Y316787D01*
X318523Y316852D01*
X319375Y317574D01*
X320294Y318099D01*
X321212Y318492D01*
X322065Y318755D01*
X322852Y318886D01*
X323443Y319017D01*
X323967D01*
X324689Y318952D01*
D02*
G37*
G36*
X345419D02*
X346075Y318820D01*
X346665Y318624D01*
X347255Y318361D01*
X348240Y317705D01*
X349092Y316984D01*
X349748Y316262D01*
X350273Y315606D01*
X350470Y315344D01*
X350536Y315147D01*
X350667Y315016D01*
Y314950D01*
X351060Y314163D01*
X351388Y313310D01*
X351848Y311539D01*
X352241Y309636D01*
X352503Y307865D01*
X352569Y307012D01*
X352635Y306225D01*
X352700Y305504D01*
Y304913D01*
X352766Y304454D01*
Y304060D01*
Y303798D01*
Y303732D01*
Y302355D01*
X352635Y301108D01*
X352569Y299928D01*
X352372Y298812D01*
X352175Y297828D01*
X351979Y296910D01*
X351782Y296057D01*
X351519Y295270D01*
X351323Y294614D01*
X351126Y294024D01*
X350929Y293499D01*
X350732Y293105D01*
X350536Y292777D01*
X350470Y292580D01*
X350339Y292449D01*
Y292384D01*
X349880Y291662D01*
X349355Y291072D01*
X348830Y290547D01*
X348240Y290088D01*
X347649Y289760D01*
X347124Y289432D01*
X346009Y288972D01*
X345025Y288644D01*
X344632Y288579D01*
X344238Y288513D01*
X343910Y288448D01*
X343516D01*
X342336Y288579D01*
X341155Y288841D01*
X340171Y289235D01*
X339252Y289694D01*
X338531Y290153D01*
X337940Y290547D01*
X337612Y290809D01*
X337481Y290940D01*
Y296057D01*
X337875Y295532D01*
X338334Y295139D01*
X339187Y294417D01*
X340039Y293958D01*
X340827Y293564D01*
X341548Y293368D01*
X342073Y293302D01*
X342401Y293236D01*
X342532D01*
X343451Y293368D01*
X344238Y293630D01*
X344894Y294089D01*
X345484Y294680D01*
X346009Y295401D01*
X346403Y296188D01*
X346731Y297041D01*
X346993Y297960D01*
X347387Y299665D01*
X347518Y300452D01*
X347584Y301174D01*
Y301764D01*
X347649Y302224D01*
Y302486D01*
Y302617D01*
X336891D01*
Y304126D01*
X336956Y305504D01*
X337022Y306816D01*
X337219Y308062D01*
X337350Y309177D01*
X337547Y310227D01*
X337809Y311211D01*
X338072Y312129D01*
X338334Y312916D01*
X338662Y313704D01*
X338990Y314360D01*
X339318Y315016D01*
X340039Y316131D01*
X340761Y316984D01*
X341483Y317640D01*
X342204Y318164D01*
X342860Y318492D01*
X343451Y318755D01*
X343976Y318886D01*
X344369Y319017D01*
X344697D01*
X345419Y318952D01*
D02*
G37*
G36*
X182403D02*
X183190Y318820D01*
X183911Y318624D01*
X184633Y318361D01*
X185880Y317640D01*
X186995Y316852D01*
X187847Y316000D01*
X188504Y315344D01*
X188700Y315016D01*
X188897Y314819D01*
X188963Y314688D01*
X189028Y314622D01*
X189553Y313769D01*
X189947Y312916D01*
X190668Y311080D01*
X191193Y309177D01*
X191521Y307406D01*
X191652Y306619D01*
X191784Y305832D01*
X191849Y305176D01*
Y304585D01*
X191915Y304126D01*
Y303798D01*
Y303536D01*
Y303470D01*
X191849Y302289D01*
X191784Y301108D01*
X191456Y299009D01*
X191259Y298025D01*
X190996Y297172D01*
X190734Y296320D01*
X190406Y295598D01*
X190143Y294942D01*
X189881Y294352D01*
X189619Y293827D01*
X189422Y293433D01*
X189225Y293105D01*
X189094Y292843D01*
X188963Y292712D01*
Y292646D01*
X188372Y291924D01*
X187782Y291268D01*
X187191Y290678D01*
X186536Y290219D01*
X185945Y289825D01*
X185289Y289497D01*
X184174Y288972D01*
X183124Y288644D01*
X182665Y288579D01*
X182272Y288513D01*
X182009Y288448D01*
X181550D01*
X180566Y288513D01*
X179648Y288710D01*
X178795Y288972D01*
X178073Y289235D01*
X177417Y289497D01*
X176958Y289760D01*
X176630Y289956D01*
X176499Y290022D01*
Y294942D01*
X177220Y294352D01*
X177942Y293958D01*
X178598Y293630D01*
X179123Y293433D01*
X179582Y293302D01*
X179910Y293236D01*
X180238D01*
X181287Y293368D01*
X182206Y293696D01*
X183059Y294089D01*
X183715Y294614D01*
X184239Y295139D01*
X184633Y295532D01*
X184895Y295860D01*
X184961Y295992D01*
X185552Y297107D01*
X185945Y298353D01*
X186273Y299665D01*
X186470Y300846D01*
X186601Y301961D01*
Y302420D01*
X186667Y302814D01*
Y303142D01*
Y303404D01*
Y303536D01*
Y303601D01*
X186601Y305372D01*
X186404Y306881D01*
X186142Y308193D01*
X185880Y309308D01*
X185617Y310161D01*
X185355Y310817D01*
X185158Y311211D01*
X185092Y311342D01*
X184764Y311867D01*
X184436Y312326D01*
X183715Y312982D01*
X182993Y313507D01*
X182337Y313900D01*
X181681Y314097D01*
X181222Y314163D01*
X180894Y314228D01*
X180763D01*
X180172Y314163D01*
X179516Y313966D01*
X178926Y313769D01*
X178270Y313507D01*
X177745Y313179D01*
X177351Y312982D01*
X177089Y312785D01*
X176958Y312720D01*
Y317902D01*
X177876Y318296D01*
X178729Y318558D01*
X179516Y318755D01*
X180172Y318886D01*
X180763Y318952D01*
X181156Y319017D01*
X181550D01*
X182403Y318952D01*
D02*
G37*
G36*
X143830D02*
X144486Y318820D01*
X145076Y318624D01*
X145667Y318361D01*
X146651Y317705D01*
X147504Y316984D01*
X148160Y316262D01*
X148684Y315606D01*
X148881Y315344D01*
X148947Y315147D01*
X149078Y315016D01*
Y314950D01*
X149471Y314163D01*
X149799Y313310D01*
X150259Y311539D01*
X150652Y309636D01*
X150915Y307865D01*
X150980Y307012D01*
X151046Y306225D01*
X151112Y305504D01*
Y304913D01*
X151177Y304454D01*
Y304060D01*
Y303798D01*
Y303732D01*
Y302355D01*
X151046Y301108D01*
X150980Y299928D01*
X150784Y298812D01*
X150587Y297828D01*
X150390Y296910D01*
X150193Y296057D01*
X149931Y295270D01*
X149734Y294614D01*
X149537Y294024D01*
X149340Y293499D01*
X149143Y293105D01*
X148947Y292777D01*
X148881Y292580D01*
X148750Y292449D01*
Y292384D01*
X148291Y291662D01*
X147766Y291072D01*
X147241Y290547D01*
X146651Y290088D01*
X146060Y289760D01*
X145536Y289432D01*
X144420Y288972D01*
X143436Y288644D01*
X143043Y288579D01*
X142649Y288513D01*
X142321Y288448D01*
X141928D01*
X140747Y288579D01*
X139566Y288841D01*
X138582Y289235D01*
X137663Y289694D01*
X136942Y290153D01*
X136351Y290547D01*
X136024Y290809D01*
X135892Y290940D01*
Y296057D01*
X136286Y295532D01*
X136745Y295139D01*
X137598Y294417D01*
X138451Y293958D01*
X139238Y293564D01*
X139959Y293368D01*
X140484Y293302D01*
X140812Y293236D01*
X140944D01*
X141862Y293368D01*
X142649Y293630D01*
X143305Y294089D01*
X143895Y294680D01*
X144420Y295401D01*
X144814Y296188D01*
X145142Y297041D01*
X145404Y297960D01*
X145798Y299665D01*
X145929Y300452D01*
X145995Y301174D01*
Y301764D01*
X146060Y302224D01*
Y302486D01*
Y302617D01*
X135302D01*
Y304126D01*
X135368Y305504D01*
X135433Y306816D01*
X135630Y308062D01*
X135761Y309177D01*
X135958Y310227D01*
X136220Y311211D01*
X136483Y312129D01*
X136745Y312916D01*
X137073Y313704D01*
X137401Y314360D01*
X137729Y315016D01*
X138451Y316131D01*
X139172Y316984D01*
X139894Y317640D01*
X140615Y318164D01*
X141272Y318492D01*
X141862Y318755D01*
X142387Y318886D01*
X142780Y319017D01*
X143108D01*
X143830Y318952D01*
D02*
G37*
G36*
X124609Y324396D02*
X125396Y323150D01*
X126183Y322035D01*
X126905Y320920D01*
X127627Y319870D01*
X128283Y318952D01*
X128873Y318099D01*
X129464Y317312D01*
X129988Y316590D01*
X130447Y315934D01*
X130841Y315409D01*
X131169Y314950D01*
X131431Y314622D01*
X131628Y314360D01*
X131760Y314228D01*
X131825Y314163D01*
Y313769D01*
X128480D01*
Y294876D01*
X128414Y293761D01*
X128217Y292777D01*
X127955Y291924D01*
X127627Y291137D01*
X127233Y290547D01*
X126774Y290022D01*
X126315Y289563D01*
X125790Y289235D01*
X125331Y288972D01*
X124871Y288776D01*
X124019Y288579D01*
X123625Y288513D01*
X123363Y288448D01*
X123166D01*
X122444Y288513D01*
X121657Y288644D01*
X120870Y288776D01*
X120214Y288972D01*
X119558Y289169D01*
X119099Y289366D01*
X118771Y289432D01*
X118639Y289497D01*
Y294024D01*
X119230Y293761D01*
X119755Y293564D01*
X120279Y293433D01*
X120673Y293368D01*
X121001Y293302D01*
X121198Y293236D01*
X121395D01*
X121788Y293302D01*
X122116Y293368D01*
X122576Y293630D01*
X122903Y293892D01*
X122969Y294024D01*
X123100Y294417D01*
X123166Y294876D01*
X123297Y295926D01*
X123363Y296385D01*
Y296779D01*
Y297041D01*
Y297172D01*
Y313769D01*
X118639D01*
Y318230D01*
X123363D01*
Y325708D01*
X123822D01*
X124609Y324396D01*
D02*
G37*
G36*
X391732Y289235D02*
X386091D01*
Y308390D01*
X384976D01*
X383926Y308456D01*
X382942Y308521D01*
X381171Y308915D01*
X379596Y309440D01*
X378940Y309702D01*
X378350Y310030D01*
X377825Y310358D01*
X377300Y310620D01*
X376907Y310883D01*
X376579Y311145D01*
X376316Y311342D01*
X376120Y311539D01*
X376054Y311604D01*
X375988Y311670D01*
X375398Y312326D01*
X374873Y313048D01*
X374414Y313769D01*
X374020Y314491D01*
X373430Y316000D01*
X373036Y317508D01*
X372839Y318755D01*
X372774Y319345D01*
X372708Y319804D01*
X372643Y320264D01*
Y320526D01*
Y320723D01*
Y320788D01*
X372708Y321838D01*
X372774Y322822D01*
X373233Y324528D01*
X373758Y326102D01*
X374086Y326758D01*
X374414Y327348D01*
X374808Y327873D01*
X375135Y328332D01*
X375398Y328726D01*
X375660Y329054D01*
X375923Y329316D01*
X376120Y329513D01*
X376185Y329579D01*
X376251Y329644D01*
X376972Y330235D01*
X377694Y330760D01*
X378416Y331153D01*
X379268Y331547D01*
X380843Y332137D01*
X382351Y332531D01*
X383073Y332662D01*
X383729Y332728D01*
X384320Y332859D01*
X384844D01*
X385238Y332924D01*
X391732D01*
Y289235D01*
D02*
G37*
G36*
X358014Y318624D02*
X358539Y318427D01*
X358998Y318164D01*
X359457Y317902D01*
X359719Y317640D01*
X359982Y317377D01*
X360113Y317180D01*
X360179Y317115D01*
X360375Y316787D01*
X360572Y316393D01*
X360966Y315409D01*
X361425Y314294D01*
X361819Y313179D01*
X362212Y312064D01*
X362344Y311604D01*
X362475Y311211D01*
X362606Y310817D01*
X362671Y310555D01*
X362737Y310424D01*
Y310358D01*
X362803D01*
Y318230D01*
X367920D01*
Y289235D01*
X362803D01*
Y300715D01*
X362737Y302224D01*
X362540Y303667D01*
X362344Y305044D01*
X362015Y306356D01*
X361753Y307406D01*
X361622Y307865D01*
X361556Y308259D01*
X361425Y308587D01*
X361360Y308784D01*
X361294Y308915D01*
Y308980D01*
X360966Y309768D01*
X360638Y310424D01*
X360375Y311014D01*
X359982Y311473D01*
X359654Y311932D01*
X359326Y312260D01*
X358736Y312785D01*
X358211Y313113D01*
X357752Y313244D01*
X357489Y313310D01*
X356899D01*
X356440Y313179D01*
X355718Y312982D01*
X355455Y312851D01*
X355259Y312720D01*
X355127Y312654D01*
X355062Y312588D01*
X354668Y317771D01*
X355127Y318099D01*
X355587Y318296D01*
X356505Y318558D01*
X356833Y318624D01*
X357096Y318689D01*
X357358D01*
X358014Y318624D01*
D02*
G37*
G36*
X172628Y289235D02*
X167512D01*
Y332924D01*
X172628D01*
Y289235D01*
D02*
G37*
G36*
X166987Y304126D02*
X159115Y289235D01*
X153407D01*
X162132Y304454D01*
X154392Y318230D01*
X159771D01*
X166987Y304126D01*
D02*
G37*
G36*
X225633Y318952D02*
X226486Y318689D01*
X227273Y318427D01*
X227863Y318033D01*
X228388Y317705D01*
X228782Y317377D01*
X229044Y317115D01*
X229110Y317049D01*
X229700Y316328D01*
X230160Y315475D01*
X230422Y314688D01*
X230684Y313900D01*
X230815Y313244D01*
X230881Y312720D01*
Y312326D01*
Y312260D01*
Y312195D01*
X230815Y311539D01*
X230750Y310883D01*
X230619Y310227D01*
X230488Y309636D01*
X230356Y309177D01*
X230291Y308718D01*
X230160Y308456D01*
Y308390D01*
X229766Y307537D01*
X229307Y306553D01*
X228716Y305504D01*
X228060Y304454D01*
X227470Y303536D01*
X227011Y302748D01*
X226814Y302420D01*
X226683Y302224D01*
X226552Y302092D01*
Y302027D01*
X226027Y301240D01*
X225567Y300518D01*
X224911Y299272D01*
X224387Y298156D01*
X223993Y297304D01*
X223796Y296648D01*
X223731Y296188D01*
X223665Y295860D01*
Y295795D01*
Y295401D01*
X223796Y295008D01*
X224059Y294483D01*
X224321Y294089D01*
X224387Y294024D01*
X224452Y293958D01*
X224715Y293696D01*
X225043Y293564D01*
X225633Y293302D01*
X225830D01*
X226027Y293236D01*
X226224D01*
X226617Y293302D01*
X227076Y293368D01*
X227929Y293761D01*
X228782Y294286D01*
X229504Y294876D01*
X230225Y295467D01*
X230750Y295926D01*
X231078Y296320D01*
X231143Y296385D01*
X231209Y296451D01*
Y290809D01*
X230160Y290022D01*
X229110Y289432D01*
X228126Y289038D01*
X227273Y288776D01*
X226552Y288579D01*
X225961Y288513D01*
X225633Y288448D01*
X225502D01*
X224452Y288513D01*
X223468Y288776D01*
X222615Y289104D01*
X221959Y289497D01*
X221369Y289891D01*
X220910Y290219D01*
X220648Y290481D01*
X220582Y290547D01*
X219926Y291400D01*
X219401Y292252D01*
X219073Y293171D01*
X218811Y294024D01*
X218679Y294745D01*
X218548Y295336D01*
Y295729D01*
Y295795D01*
Y295860D01*
X218614Y296582D01*
X218679Y297238D01*
X218811Y297960D01*
X218942Y298550D01*
X219139Y299075D01*
X219270Y299468D01*
X219335Y299796D01*
X219401Y299862D01*
X219795Y300780D01*
X220385Y301764D01*
X220976Y302814D01*
X221631Y303798D01*
X222287Y304716D01*
X222812Y305504D01*
X223009Y305766D01*
X223140Y305963D01*
X223206Y306094D01*
X223272Y306160D01*
X223796Y306947D01*
X224256Y307603D01*
X224977Y308849D01*
X225502Y309899D01*
X225830Y310752D01*
X226092Y311408D01*
X226158Y311867D01*
X226224Y312129D01*
Y312195D01*
X226158Y312916D01*
X225895Y313441D01*
X225567Y313835D01*
X225174Y314097D01*
X224846Y314228D01*
X224518Y314360D01*
X224190D01*
X223468Y314294D01*
X222681Y314032D01*
X221959Y313704D01*
X221238Y313376D01*
X220648Y312982D01*
X220188Y312654D01*
X219860Y312392D01*
X219729Y312326D01*
Y317115D01*
X220648Y317771D01*
X221500Y318230D01*
X222353Y318558D01*
X223075Y318755D01*
X223731Y318952D01*
X224190Y319017D01*
X224649D01*
X225633Y318952D01*
D02*
G37*
G36*
X206281D02*
X207003Y318820D01*
X207659Y318624D01*
X208315Y318361D01*
X209430Y317705D01*
X210348Y316984D01*
X211136Y316196D01*
X211660Y315540D01*
X211857Y315278D01*
X211988Y315081D01*
X212119Y314950D01*
Y314884D01*
X212513Y314097D01*
X212907Y313244D01*
X213497Y311408D01*
X213956Y309571D01*
X214219Y307734D01*
X214350Y306947D01*
X214416Y306160D01*
X214481Y305438D01*
Y304848D01*
X214547Y304323D01*
Y303995D01*
Y303732D01*
Y303667D01*
Y302355D01*
X214416Y301174D01*
X214350Y299993D01*
X214153Y298944D01*
X213956Y297960D01*
X213760Y297041D01*
X213563Y296188D01*
X213300Y295467D01*
X213103Y294745D01*
X212907Y294155D01*
X212710Y293696D01*
X212513Y293236D01*
X212316Y292908D01*
X212251Y292712D01*
X212119Y292580D01*
Y292515D01*
X211660Y291793D01*
X211136Y291203D01*
X210611Y290612D01*
X210086Y290153D01*
X209495Y289760D01*
X208971Y289432D01*
X207921Y288972D01*
X206937Y288644D01*
X206215Y288513D01*
X205887Y288448D01*
X205494D01*
X204707Y288513D01*
X203985Y288644D01*
X203329Y288841D01*
X202673Y289104D01*
X201558Y289760D01*
X200574Y290481D01*
X199852Y291203D01*
X199327Y291859D01*
X199131Y292121D01*
X199000Y292318D01*
X198868Y292449D01*
Y292515D01*
X198409Y293302D01*
X198016Y294155D01*
X197425Y295992D01*
X196966Y297828D01*
X196703Y299600D01*
X196572Y300452D01*
X196507Y301240D01*
X196441Y301896D01*
Y302486D01*
X196375Y303011D01*
Y303339D01*
Y303601D01*
Y303667D01*
Y304979D01*
X196507Y306225D01*
X196572Y307340D01*
X196769Y308456D01*
X196966Y309440D01*
X197163Y310358D01*
X197359Y311211D01*
X197622Y311932D01*
X197884Y312654D01*
X198081Y313244D01*
X198278Y313704D01*
X198475Y314163D01*
X198606Y314491D01*
X198737Y314688D01*
X198868Y314819D01*
Y314884D01*
X199327Y315606D01*
X199852Y316262D01*
X200377Y316787D01*
X200902Y317246D01*
X201492Y317705D01*
X202017Y318033D01*
X203067Y318492D01*
X204051Y318820D01*
X204772Y318952D01*
X205100Y319017D01*
X205494D01*
X206281Y318952D01*
D02*
G37*
G36*
X266174Y318558D02*
X267027Y318296D01*
X267748Y317902D01*
X268404Y317443D01*
X268929Y316918D01*
X269257Y316524D01*
X269519Y316262D01*
X269585Y316131D01*
X269651D01*
Y318230D01*
X274767D01*
Y273622D01*
X269651D01*
Y290940D01*
X269585D01*
X268863Y290088D01*
X268076Y289497D01*
X267355Y289038D01*
X266699Y288776D01*
X266108Y288579D01*
X265584Y288513D01*
X265321Y288448D01*
X265190D01*
X264534Y288513D01*
X263878Y288644D01*
X263288Y288841D01*
X262763Y289104D01*
X261713Y289760D01*
X260860Y290547D01*
X260139Y291268D01*
X259614Y291924D01*
X259483Y292187D01*
X259351Y292384D01*
X259220Y292515D01*
Y292580D01*
X258433Y294220D01*
X257843Y295992D01*
X257449Y297763D01*
X257121Y299468D01*
X257055Y300256D01*
X256990Y300977D01*
X256924Y301633D01*
Y302158D01*
X256859Y302617D01*
Y303011D01*
Y303208D01*
Y303273D01*
X256990Y305635D01*
X257252Y307800D01*
X257449Y308784D01*
X257646Y309702D01*
X257843Y310489D01*
X258039Y311276D01*
X258302Y311932D01*
X258499Y312588D01*
X258695Y313048D01*
X258892Y313507D01*
X259089Y313835D01*
X259155Y314097D01*
X259286Y314228D01*
Y314294D01*
X259745Y315081D01*
X260204Y315737D01*
X260729Y316328D01*
X261254Y316852D01*
X261713Y317246D01*
X262238Y317640D01*
X263156Y318164D01*
X263943Y318427D01*
X264599Y318624D01*
X264862Y318689D01*
X265190D01*
X266174Y318558D01*
D02*
G37*
G36*
X384254Y237204D02*
X383171D01*
X376628Y259443D01*
X380514D01*
X383663Y247044D01*
X383762D01*
X386910Y259443D01*
X390748D01*
X384254Y237204D01*
D02*
G37*
G36*
X369444Y237696D02*
X365213D01*
Y270463D01*
X369444D01*
Y237696D01*
D02*
G37*
G36*
X354438Y242616D02*
X354783Y242518D01*
X355127Y242419D01*
X355373Y242272D01*
X355619Y242075D01*
X355767Y241977D01*
X355865Y241878D01*
X355914Y241829D01*
X356160Y241534D01*
X356357Y241189D01*
X356505Y240894D01*
X356603Y240599D01*
X356652Y240353D01*
X356702Y240156D01*
Y240009D01*
Y239959D01*
X356652Y239566D01*
X356554Y239172D01*
X356456Y238877D01*
X356308Y238582D01*
X356160Y238336D01*
X356013Y238188D01*
X355964Y238090D01*
X355914Y238041D01*
X355619Y237795D01*
X355275Y237598D01*
X354980Y237450D01*
X354684Y237352D01*
X354438Y237303D01*
X354242Y237253D01*
X354045D01*
X353651Y237303D01*
X353258Y237401D01*
X352962Y237499D01*
X352667Y237647D01*
X352421Y237795D01*
X352274Y237942D01*
X352175Y237991D01*
X352126Y238041D01*
X351880Y238336D01*
X351683Y238680D01*
X351536Y238975D01*
X351437Y239320D01*
X351388Y239566D01*
X351339Y239763D01*
Y239910D01*
Y239959D01*
X351388Y240353D01*
X351437Y240697D01*
X351585Y241042D01*
X351732Y241288D01*
X351880Y241534D01*
X351978Y241681D01*
X352077Y241780D01*
X352126Y241829D01*
X352421Y242124D01*
X352766Y242321D01*
X353061Y242469D01*
X353356Y242567D01*
X353651Y242616D01*
X353848Y242665D01*
X354045D01*
X354438Y242616D01*
D02*
G37*
G36*
X341499Y270759D02*
X342089Y270611D01*
X342680Y270414D01*
X343172Y270070D01*
X343664Y269725D01*
X344106Y269233D01*
X344549Y268741D01*
X344943Y268151D01*
X345287Y267561D01*
X345632Y266872D01*
X346173Y265494D01*
X346665Y263969D01*
X347009Y262395D01*
X347304Y260820D01*
X347501Y259295D01*
X347698Y257868D01*
X347747Y257179D01*
X347796Y256589D01*
Y255999D01*
X347846Y255507D01*
Y255064D01*
X347895Y254670D01*
Y254375D01*
Y254129D01*
Y253981D01*
Y253932D01*
Y252358D01*
X347846Y250931D01*
X347747Y249603D01*
X347649Y248323D01*
X347501Y247192D01*
X347354Y246159D01*
X347206Y245224D01*
X347058Y244387D01*
X346911Y243649D01*
X346763Y243010D01*
X346616Y242469D01*
X346468Y242026D01*
X346370Y241681D01*
X346271Y241435D01*
X346222Y241288D01*
Y241239D01*
X345878Y240501D01*
X345484Y239861D01*
X345090Y239320D01*
X344648Y238828D01*
X344205Y238434D01*
X343762Y238139D01*
X343319Y237844D01*
X342876Y237647D01*
X342089Y237303D01*
X341745Y237253D01*
X341450Y237155D01*
X341204D01*
X341007Y237106D01*
X340859D01*
X340170Y237155D01*
X339531Y237303D01*
X338940Y237499D01*
X338399Y237745D01*
X337464Y238434D01*
X336726Y239221D01*
X336136Y239959D01*
X335693Y240648D01*
X335595Y240894D01*
X335496Y241091D01*
X335398Y241239D01*
Y241288D01*
X335103Y242124D01*
X334808Y243010D01*
X334611Y243994D01*
X334414Y245027D01*
X334119Y247143D01*
X333873Y249160D01*
X333824Y250144D01*
X333774Y251029D01*
X333725Y251866D01*
Y252555D01*
X333676Y253145D01*
Y253539D01*
Y253834D01*
Y253932D01*
Y255507D01*
X333774Y256983D01*
X333824Y258360D01*
X333971Y259639D01*
X334070Y260771D01*
X334217Y261853D01*
X334414Y262788D01*
X334562Y263625D01*
X334709Y264363D01*
X334906Y265002D01*
X335054Y265543D01*
X335152Y265937D01*
X335300Y266281D01*
X335349Y266527D01*
X335447Y266675D01*
Y266724D01*
X335792Y267462D01*
X336185Y268053D01*
X336579Y268643D01*
X337022Y269086D01*
X337464Y269479D01*
X337956Y269824D01*
X338399Y270070D01*
X338793Y270316D01*
X339629Y270611D01*
X339974Y270660D01*
X340269Y270759D01*
X340515D01*
X340712Y270808D01*
X340859D01*
X341499Y270759D01*
D02*
G37*
G36*
X285066Y230503D02*
X285755Y230405D01*
X286395Y230306D01*
X286936Y230159D01*
X287428Y229962D01*
X287772Y229864D01*
X287969Y229765D01*
X288068Y229716D01*
Y225632D01*
X287526Y225928D01*
X286985Y226124D01*
X286493Y226272D01*
X286050Y226370D01*
X285706Y226420D01*
X285460Y226469D01*
X285214D01*
X284574Y226420D01*
X284033Y226272D01*
X283541Y226026D01*
X283098Y225829D01*
X282803Y225583D01*
X282557Y225337D01*
X282410Y225190D01*
X282360Y225140D01*
X282016Y224648D01*
X281721Y224058D01*
X281524Y223468D01*
X281426Y222926D01*
X281327Y222434D01*
X281278Y222041D01*
Y221795D01*
Y221746D01*
Y221696D01*
X281327Y220958D01*
X281426Y220270D01*
X281622Y219728D01*
X281868Y219187D01*
X282164Y218744D01*
X282508Y218351D01*
X282852Y218006D01*
X283197Y217760D01*
X283886Y217318D01*
X284525Y217072D01*
X284771Y217022D01*
X284968Y216973D01*
X285066Y216924D01*
X285116D01*
Y212742D01*
X284378Y212545D01*
X283738Y212299D01*
X283148Y211955D01*
X282656Y211512D01*
X282262Y211069D01*
X281918Y210577D01*
X281622Y210036D01*
X281426Y209544D01*
X281229Y209003D01*
X281130Y208511D01*
X281032Y208068D01*
X280934Y207674D01*
Y207330D01*
X280884Y207084D01*
Y206887D01*
Y206838D01*
X280934Y205854D01*
X281081Y205018D01*
X281278Y204280D01*
X281475Y203640D01*
X281721Y203148D01*
X281918Y202804D01*
X282065Y202607D01*
X282114Y202508D01*
X282606Y201967D01*
X283098Y201623D01*
X283590Y201328D01*
X284082Y201131D01*
X284525Y201032D01*
X284870Y200983D01*
X285116Y200934D01*
X285214D01*
X285804Y200983D01*
X286444Y201082D01*
X287034Y201278D01*
X287576Y201475D01*
X288068Y201672D01*
X288461Y201869D01*
X288707Y201967D01*
X288806Y202016D01*
Y197834D01*
X287920Y197490D01*
X287133Y197244D01*
X286395Y197096D01*
X285804Y196998D01*
X285312Y196900D01*
X284919Y196850D01*
X284624D01*
X283984Y196900D01*
X283394Y196949D01*
X282852Y197096D01*
X282311Y197293D01*
X281327Y197736D01*
X280491Y198277D01*
X279851Y198769D01*
X279359Y199212D01*
X279162Y199409D01*
X279015Y199556D01*
X278966Y199606D01*
X278916Y199655D01*
X278523Y200196D01*
X278129Y200737D01*
X277539Y201918D01*
X277145Y203050D01*
X276850Y204132D01*
X276653Y205067D01*
X276604Y205460D01*
Y205805D01*
X276555Y206100D01*
Y206297D01*
Y206444D01*
Y206494D01*
X276604Y207674D01*
X276801Y208708D01*
X277047Y209692D01*
X277391Y210528D01*
X277785Y211315D01*
X278228Y212004D01*
X278720Y212594D01*
X279212Y213136D01*
X279753Y213578D01*
X280196Y213972D01*
X280688Y214267D01*
X281081Y214513D01*
X281426Y214710D01*
X281672Y214808D01*
X281868Y214907D01*
X281918D01*
X281032Y215399D01*
X280294Y215940D01*
X279605Y216530D01*
X279064Y217121D01*
X278572Y217760D01*
X278178Y218400D01*
X277834Y218990D01*
X277588Y219581D01*
X277342Y220171D01*
X277194Y220663D01*
X277096Y221155D01*
X277047Y221549D01*
X276998Y221893D01*
X276948Y222188D01*
Y222336D01*
Y222385D01*
Y223025D01*
X277047Y223615D01*
X277293Y224747D01*
X277637Y225780D01*
X277982Y226616D01*
X278375Y227256D01*
X278720Y227797D01*
X278867Y227945D01*
X278966Y228092D01*
X279015Y228142D01*
X279064Y228191D01*
X279458Y228584D01*
X279900Y228978D01*
X280786Y229568D01*
X281672Y229962D01*
X282508Y230257D01*
X283197Y230454D01*
X283541Y230503D01*
X283787D01*
X284033Y230552D01*
X284328D01*
X285066Y230503D01*
D02*
G37*
G36*
X386172D02*
X387009Y230356D01*
X387796Y230159D01*
X388534Y229962D01*
X389124Y229765D01*
X389616Y229568D01*
X389813Y229470D01*
X389961Y229421D01*
X390010Y229372D01*
X390059D01*
Y224993D01*
X389223Y225337D01*
X388534Y225632D01*
X387894Y225829D01*
X387353Y225928D01*
X386960Y226026D01*
X386664Y226075D01*
X386418D01*
X385730Y226026D01*
X385139Y225829D01*
X384598Y225583D01*
X384155Y225337D01*
X383811Y225042D01*
X383516Y224796D01*
X383368Y224599D01*
X383319Y224550D01*
X382925Y223960D01*
X382630Y223320D01*
X382433Y222631D01*
X382286Y221992D01*
X382187Y221450D01*
X382138Y220958D01*
Y220663D01*
Y220614D01*
Y220565D01*
Y219778D01*
X382236Y218941D01*
X382482Y217219D01*
X382925Y215448D01*
X383466Y213578D01*
X384155Y211709D01*
X384844Y209839D01*
X385631Y208019D01*
X386418Y206248D01*
X387255Y204575D01*
X388042Y203050D01*
X388731Y201623D01*
X389075Y201032D01*
X389420Y200442D01*
X389715Y199901D01*
X389961Y199458D01*
X390158Y199064D01*
X390354Y198720D01*
X390551Y198425D01*
X390650Y198228D01*
X390699Y198130D01*
X390748Y198080D01*
Y197441D01*
X377120D01*
Y201623D01*
X384795D01*
X384106Y202951D01*
X383466Y204230D01*
X382876Y205460D01*
X382335Y206592D01*
X381892Y207625D01*
X381449Y208560D01*
X381056Y209446D01*
X380711Y210233D01*
X380367Y210971D01*
X380121Y211561D01*
X379924Y212102D01*
X379727Y212545D01*
X379580Y212890D01*
X379481Y213136D01*
X379432Y213283D01*
Y213332D01*
X378891Y214907D01*
X378497Y216432D01*
X378202Y217760D01*
X378104Y218400D01*
X378005Y218990D01*
X377956Y219482D01*
X377907Y219974D01*
X377858Y220368D01*
X377808Y220712D01*
Y221008D01*
Y221204D01*
Y221303D01*
Y221352D01*
X377907Y222877D01*
X378104Y224206D01*
X378448Y225386D01*
X378645Y225878D01*
X378792Y226321D01*
X378989Y226715D01*
X379186Y227108D01*
X379334Y227404D01*
X379530Y227650D01*
X379629Y227846D01*
X379727Y227994D01*
X379826Y228043D01*
Y228092D01*
X380219Y228535D01*
X380662Y228929D01*
X381105Y229224D01*
X381548Y229519D01*
X382433Y229962D01*
X383319Y230257D01*
X384106Y230405D01*
X384450Y230503D01*
X384746D01*
X384992Y230552D01*
X385336D01*
X386172Y230503D01*
D02*
G37*
G36*
X350355D02*
X351191Y230356D01*
X351978Y230159D01*
X352716Y229962D01*
X353307Y229765D01*
X353799Y229568D01*
X353996Y229470D01*
X354143Y229421D01*
X354192Y229372D01*
X354242D01*
Y224993D01*
X353405Y225337D01*
X352716Y225632D01*
X352077Y225829D01*
X351536Y225928D01*
X351142Y226026D01*
X350847Y226075D01*
X350601D01*
X349912Y226026D01*
X349322Y225829D01*
X348780Y225583D01*
X348338Y225337D01*
X347993Y225042D01*
X347698Y224796D01*
X347550Y224599D01*
X347501Y224550D01*
X347108Y223960D01*
X346812Y223320D01*
X346616Y222631D01*
X346468Y221992D01*
X346370Y221450D01*
X346320Y220958D01*
Y220663D01*
Y220614D01*
Y220565D01*
Y219778D01*
X346419Y218941D01*
X346665Y217219D01*
X347108Y215448D01*
X347649Y213578D01*
X348338Y211709D01*
X349026Y209839D01*
X349814Y208019D01*
X350601Y206248D01*
X351437Y204575D01*
X352224Y203050D01*
X352913Y201623D01*
X353258Y201032D01*
X353602Y200442D01*
X353897Y199901D01*
X354143Y199458D01*
X354340Y199064D01*
X354537Y198720D01*
X354734Y198425D01*
X354832Y198228D01*
X354881Y198130D01*
X354930Y198080D01*
Y197441D01*
X341302D01*
Y201623D01*
X348977D01*
X348288Y202951D01*
X347649Y204230D01*
X347058Y205460D01*
X346517Y206592D01*
X346074Y207625D01*
X345632Y208560D01*
X345238Y209446D01*
X344894Y210233D01*
X344549Y210971D01*
X344303Y211561D01*
X344106Y212102D01*
X343910Y212545D01*
X343762Y212890D01*
X343664Y213136D01*
X343614Y213283D01*
Y213332D01*
X343073Y214907D01*
X342680Y216432D01*
X342384Y217760D01*
X342286Y218400D01*
X342188Y218990D01*
X342138Y219482D01*
X342089Y219974D01*
X342040Y220368D01*
X341991Y220712D01*
Y221008D01*
Y221204D01*
Y221303D01*
Y221352D01*
X342089Y222877D01*
X342286Y224206D01*
X342630Y225386D01*
X342827Y225878D01*
X342975Y226321D01*
X343172Y226715D01*
X343368Y227108D01*
X343516Y227404D01*
X343713Y227650D01*
X343811Y227846D01*
X343910Y227994D01*
X344008Y228043D01*
Y228092D01*
X344402Y228535D01*
X344844Y228929D01*
X345287Y229224D01*
X345730Y229519D01*
X346616Y229962D01*
X347501Y230257D01*
X348288Y230405D01*
X348633Y230503D01*
X348928D01*
X349174Y230552D01*
X349518D01*
X350355Y230503D01*
D02*
G37*
G36*
X332446D02*
X333282Y230356D01*
X334070Y230159D01*
X334808Y229962D01*
X335398Y229765D01*
X335890Y229568D01*
X336087Y229470D01*
X336234Y229421D01*
X336284Y229372D01*
X336333D01*
Y224993D01*
X335496Y225337D01*
X334808Y225632D01*
X334168Y225829D01*
X333627Y225928D01*
X333233Y226026D01*
X332938Y226075D01*
X332692D01*
X332003Y226026D01*
X331413Y225829D01*
X330872Y225583D01*
X330429Y225337D01*
X330084Y225042D01*
X329789Y224796D01*
X329642Y224599D01*
X329592Y224550D01*
X329199Y223960D01*
X328904Y223320D01*
X328707Y222631D01*
X328559Y221992D01*
X328461Y221450D01*
X328412Y220958D01*
Y220663D01*
Y220614D01*
Y220565D01*
Y219778D01*
X328510Y218941D01*
X328756Y217219D01*
X329199Y215448D01*
X329740Y213578D01*
X330429Y211709D01*
X331118Y209839D01*
X331905Y208019D01*
X332692Y206248D01*
X333528Y204575D01*
X334316Y203050D01*
X335004Y201623D01*
X335349Y201032D01*
X335693Y200442D01*
X335988Y199901D01*
X336234Y199458D01*
X336431Y199064D01*
X336628Y198720D01*
X336825Y198425D01*
X336923Y198228D01*
X336972Y198130D01*
X337022Y198080D01*
Y197441D01*
X323393D01*
Y201623D01*
X331068D01*
X330380Y202951D01*
X329740Y204230D01*
X329150Y205460D01*
X328608Y206592D01*
X328166Y207625D01*
X327723Y208560D01*
X327329Y209446D01*
X326985Y210233D01*
X326640Y210971D01*
X326394Y211561D01*
X326198Y212102D01*
X326001Y212545D01*
X325853Y212890D01*
X325755Y213136D01*
X325706Y213283D01*
Y213332D01*
X325164Y214907D01*
X324771Y216432D01*
X324476Y217760D01*
X324377Y218400D01*
X324279Y218990D01*
X324230Y219482D01*
X324180Y219974D01*
X324131Y220368D01*
X324082Y220712D01*
Y221008D01*
Y221204D01*
Y221303D01*
Y221352D01*
X324180Y222877D01*
X324377Y224206D01*
X324722Y225386D01*
X324918Y225878D01*
X325066Y226321D01*
X325263Y226715D01*
X325460Y227108D01*
X325607Y227404D01*
X325804Y227650D01*
X325902Y227846D01*
X326001Y227994D01*
X326099Y228043D01*
Y228092D01*
X326493Y228535D01*
X326936Y228929D01*
X327378Y229224D01*
X327821Y229519D01*
X328707Y229962D01*
X329592Y230257D01*
X330380Y230405D01*
X330724Y230503D01*
X331019D01*
X331265Y230552D01*
X331610D01*
X332446Y230503D01*
D02*
G37*
G36*
X238080Y220319D02*
X238622Y219187D01*
X239064Y218006D01*
X239458Y216875D01*
X239802Y215743D01*
X240048Y214661D01*
X240294Y213578D01*
X240491Y212594D01*
X240639Y211660D01*
X240786Y210774D01*
X240885Y209987D01*
X240934Y209298D01*
X240983Y208708D01*
X241032Y208216D01*
Y207871D01*
Y207674D01*
Y207576D01*
Y206641D01*
X240934Y205756D01*
X240836Y204919D01*
X240737Y204132D01*
X240590Y203394D01*
X240442Y202754D01*
X240245Y202164D01*
X240048Y201623D01*
X239901Y201180D01*
X239704Y200737D01*
X239556Y200393D01*
X239409Y200098D01*
X239310Y199901D01*
X239212Y199753D01*
X239114Y199655D01*
Y199606D01*
X238720Y199114D01*
X238376Y198720D01*
X237982Y198326D01*
X237539Y198031D01*
X236752Y197539D01*
X236014Y197195D01*
X235325Y196998D01*
X234833Y196900D01*
X234636Y196850D01*
X234341D01*
X233800Y196900D01*
X233308Y196998D01*
X232816Y197146D01*
X232324Y197342D01*
X231488Y197834D01*
X230799Y198376D01*
X230208Y198917D01*
X229766Y199409D01*
X229618Y199606D01*
X229520Y199753D01*
X229421Y199852D01*
Y199901D01*
X228732Y201082D01*
X228240Y202361D01*
X227896Y203640D01*
X227650Y204870D01*
X227552Y205411D01*
X227502Y205903D01*
X227453Y206395D01*
Y206789D01*
X227404Y207084D01*
Y207330D01*
Y207478D01*
Y207527D01*
X227453Y209150D01*
X227650Y210577D01*
X227798Y211217D01*
X227945Y211807D01*
X228093Y212348D01*
X228240Y212890D01*
X228437Y213332D01*
X228585Y213677D01*
X228732Y214021D01*
X228831Y214316D01*
X228978Y214513D01*
X229028Y214661D01*
X229126Y214759D01*
Y214808D01*
X229470Y215300D01*
X229815Y215743D01*
X230159Y216088D01*
X230504Y216383D01*
X231242Y216875D01*
X231980Y217219D01*
X232570Y217416D01*
X233111Y217514D01*
X233308Y217564D01*
X233554D01*
X234144Y217514D01*
X234735Y217416D01*
X234981Y217367D01*
X235128Y217318D01*
X235276Y217268D01*
X235325D01*
X229028Y230208D01*
X233259D01*
X238080Y220319D01*
D02*
G37*
G36*
X319359Y206395D02*
X310454D01*
Y210479D01*
X319359D01*
Y206395D01*
D02*
G37*
G36*
X271733D02*
X262828D01*
Y210479D01*
X271733D01*
Y206395D01*
D02*
G37*
G36*
X366296Y230503D02*
X366886Y230356D01*
X367476Y230159D01*
X367968Y229814D01*
X368460Y229470D01*
X368903Y228978D01*
X369346Y228486D01*
X369740Y227896D01*
X370084Y227305D01*
X370428Y226616D01*
X370970Y225239D01*
X371462Y223714D01*
X371806Y222139D01*
X372101Y220565D01*
X372298Y219040D01*
X372495Y217613D01*
X372544Y216924D01*
X372593Y216334D01*
Y215743D01*
X372642Y215251D01*
Y214808D01*
X372692Y214415D01*
Y214120D01*
Y213874D01*
Y213726D01*
Y213677D01*
Y212102D01*
X372642Y210676D01*
X372544Y209347D01*
X372446Y208068D01*
X372298Y206936D01*
X372150Y205903D01*
X372003Y204968D01*
X371855Y204132D01*
X371708Y203394D01*
X371560Y202754D01*
X371412Y202213D01*
X371265Y201770D01*
X371166Y201426D01*
X371068Y201180D01*
X371019Y201032D01*
Y200983D01*
X370674Y200245D01*
X370281Y199606D01*
X369887Y199064D01*
X369444Y198572D01*
X369002Y198179D01*
X368559Y197884D01*
X368116Y197588D01*
X367673Y197392D01*
X366886Y197047D01*
X366542Y196998D01*
X366246Y196900D01*
X366000D01*
X365804Y196850D01*
X365656D01*
X364967Y196900D01*
X364328Y197047D01*
X363737Y197244D01*
X363196Y197490D01*
X362261Y198179D01*
X361523Y198966D01*
X360933Y199704D01*
X360490Y200393D01*
X360392Y200639D01*
X360293Y200836D01*
X360195Y200983D01*
Y201032D01*
X359900Y201869D01*
X359604Y202754D01*
X359408Y203738D01*
X359211Y204772D01*
X358916Y206887D01*
X358670Y208904D01*
X358620Y209888D01*
X358571Y210774D01*
X358522Y211610D01*
Y212299D01*
X358473Y212890D01*
Y213283D01*
Y213578D01*
Y213677D01*
Y215251D01*
X358571Y216727D01*
X358620Y218105D01*
X358768Y219384D01*
X358866Y220516D01*
X359014Y221598D01*
X359211Y222533D01*
X359358Y223369D01*
X359506Y224107D01*
X359703Y224747D01*
X359850Y225288D01*
X359949Y225682D01*
X360096Y226026D01*
X360146Y226272D01*
X360244Y226420D01*
Y226469D01*
X360588Y227207D01*
X360982Y227797D01*
X361376Y228388D01*
X361818Y228830D01*
X362261Y229224D01*
X362753Y229568D01*
X363196Y229814D01*
X363590Y230060D01*
X364426Y230356D01*
X364770Y230405D01*
X365066Y230503D01*
X365312D01*
X365508Y230552D01*
X365656D01*
X366296Y230503D01*
D02*
G37*
G36*
X300761D02*
X301352Y230356D01*
X301942Y230159D01*
X302434Y229814D01*
X302926Y229470D01*
X303369Y228978D01*
X303812Y228486D01*
X304205Y227896D01*
X304550Y227305D01*
X304894Y226616D01*
X305435Y225239D01*
X305927Y223714D01*
X306272Y222139D01*
X306567Y220565D01*
X306764Y219040D01*
X306960Y217613D01*
X307010Y216924D01*
X307059Y216334D01*
Y215743D01*
X307108Y215251D01*
Y214808D01*
X307157Y214415D01*
Y214120D01*
Y213874D01*
Y213726D01*
Y213677D01*
Y212102D01*
X307108Y210676D01*
X307010Y209347D01*
X306911Y208068D01*
X306764Y206936D01*
X306616Y205903D01*
X306468Y204968D01*
X306321Y204132D01*
X306173Y203394D01*
X306026Y202754D01*
X305878Y202213D01*
X305730Y201770D01*
X305632Y201426D01*
X305534Y201180D01*
X305484Y201032D01*
Y200983D01*
X305140Y200245D01*
X304746Y199606D01*
X304353Y199064D01*
X303910Y198572D01*
X303467Y198179D01*
X303024Y197884D01*
X302582Y197588D01*
X302139Y197392D01*
X301352Y197047D01*
X301007Y196998D01*
X300712Y196900D01*
X300466D01*
X300269Y196850D01*
X300122D01*
X299433Y196900D01*
X298793Y197047D01*
X298203Y197244D01*
X297662Y197490D01*
X296727Y198179D01*
X295989Y198966D01*
X295398Y199704D01*
X294956Y200393D01*
X294857Y200639D01*
X294759Y200836D01*
X294660Y200983D01*
Y201032D01*
X294365Y201869D01*
X294070Y202754D01*
X293873Y203738D01*
X293676Y204772D01*
X293381Y206887D01*
X293135Y208904D01*
X293086Y209888D01*
X293037Y210774D01*
X292988Y211610D01*
Y212299D01*
X292938Y212890D01*
Y213283D01*
Y213578D01*
Y213677D01*
Y215251D01*
X293037Y216727D01*
X293086Y218105D01*
X293234Y219384D01*
X293332Y220516D01*
X293480Y221598D01*
X293676Y222533D01*
X293824Y223369D01*
X293972Y224107D01*
X294168Y224747D01*
X294316Y225288D01*
X294414Y225682D01*
X294562Y226026D01*
X294611Y226272D01*
X294710Y226420D01*
Y226469D01*
X295054Y227207D01*
X295448Y227797D01*
X295841Y228388D01*
X296284Y228830D01*
X296727Y229224D01*
X297219Y229568D01*
X297662Y229814D01*
X298055Y230060D01*
X298892Y230356D01*
X299236Y230405D01*
X299531Y230503D01*
X299777D01*
X299974Y230552D01*
X300122D01*
X300761Y230503D01*
D02*
G37*
G36*
X253136D02*
X253726Y230356D01*
X254316Y230159D01*
X254808Y229814D01*
X255300Y229470D01*
X255743Y228978D01*
X256186Y228486D01*
X256580Y227896D01*
X256924Y227305D01*
X257268Y226616D01*
X257810Y225239D01*
X258302Y223714D01*
X258646Y222139D01*
X258941Y220565D01*
X259138Y219040D01*
X259335Y217613D01*
X259384Y216924D01*
X259433Y216334D01*
Y215743D01*
X259482Y215251D01*
Y214808D01*
X259532Y214415D01*
Y214120D01*
Y213874D01*
Y213726D01*
Y213677D01*
Y212102D01*
X259482Y210676D01*
X259384Y209347D01*
X259286Y208068D01*
X259138Y206936D01*
X258990Y205903D01*
X258843Y204968D01*
X258695Y204132D01*
X258548Y203394D01*
X258400Y202754D01*
X258252Y202213D01*
X258105Y201770D01*
X258006Y201426D01*
X257908Y201180D01*
X257859Y201032D01*
Y200983D01*
X257514Y200245D01*
X257121Y199606D01*
X256727Y199064D01*
X256284Y198572D01*
X255842Y198179D01*
X255399Y197884D01*
X254956Y197588D01*
X254513Y197392D01*
X253726Y197047D01*
X253382Y196998D01*
X253086Y196900D01*
X252840D01*
X252644Y196850D01*
X252496D01*
X251807Y196900D01*
X251168Y197047D01*
X250577Y197244D01*
X250036Y197490D01*
X249101Y198179D01*
X248363Y198966D01*
X247773Y199704D01*
X247330Y200393D01*
X247232Y200639D01*
X247133Y200836D01*
X247035Y200983D01*
Y201032D01*
X246740Y201869D01*
X246444Y202754D01*
X246248Y203738D01*
X246051Y204772D01*
X245756Y206887D01*
X245510Y208904D01*
X245460Y209888D01*
X245411Y210774D01*
X245362Y211610D01*
Y212299D01*
X245313Y212890D01*
Y213283D01*
Y213578D01*
Y213677D01*
Y215251D01*
X245411Y216727D01*
X245460Y218105D01*
X245608Y219384D01*
X245706Y220516D01*
X245854Y221598D01*
X246051Y222533D01*
X246198Y223369D01*
X246346Y224107D01*
X246543Y224747D01*
X246690Y225288D01*
X246789Y225682D01*
X246936Y226026D01*
X246986Y226272D01*
X247084Y226420D01*
Y226469D01*
X247428Y227207D01*
X247822Y227797D01*
X248216Y228388D01*
X248658Y228830D01*
X249101Y229224D01*
X249593Y229568D01*
X250036Y229814D01*
X250430Y230060D01*
X251266Y230356D01*
X251610Y230405D01*
X251906Y230503D01*
X252152D01*
X252348Y230552D01*
X252496D01*
X253136Y230503D01*
D02*
G37*
G36*
X-280148Y302412D02*
X-283363D01*
Y323896D01*
X-290644Y302412D01*
X-293629D01*
X-301009Y323535D01*
Y302412D01*
X-304223D01*
Y327635D01*
X-299730D01*
X-293662Y310087D01*
X-293334Y309136D01*
X-293071Y308316D01*
X-292842Y307627D01*
X-292645Y307036D01*
X-292514Y306610D01*
X-292415Y306282D01*
X-292350Y306085D01*
X-292317Y306020D01*
X-292153Y306544D01*
X-291956Y307135D01*
X-291759Y307758D01*
X-291563Y308348D01*
X-291399Y308906D01*
X-291300Y309136D01*
X-291235Y309365D01*
X-291169Y309529D01*
X-291136Y309660D01*
X-291103Y309726D01*
Y309759D01*
X-285134Y327635D01*
X-280148D01*
Y302412D01*
D02*
G37*
G36*
X-309635D02*
X-312981D01*
Y313596D01*
X-317311D01*
X-317671Y313564D01*
X-317999D01*
X-318262Y313531D01*
X-318459Y313498D01*
X-318590D01*
X-318655Y313465D01*
X-318688D01*
X-319246Y313268D01*
X-319508Y313170D01*
X-319738Y313039D01*
X-319935Y312940D01*
X-320066Y312842D01*
X-320164Y312809D01*
X-320197Y312776D01*
X-320492Y312547D01*
X-320787Y312317D01*
X-321083Y312022D01*
X-321345Y311727D01*
X-321575Y311497D01*
X-321739Y311268D01*
X-321870Y311136D01*
X-321903Y311071D01*
X-322296Y310579D01*
X-322690Y310021D01*
X-323083Y309464D01*
X-323477Y308906D01*
X-323805Y308414D01*
X-323969Y308184D01*
X-324100Y307988D01*
X-324199Y307856D01*
X-324264Y307725D01*
X-324330Y307660D01*
Y307627D01*
X-327643Y302412D01*
X-331841D01*
X-327479Y309234D01*
X-326987Y309956D01*
X-326495Y310612D01*
X-326035Y311202D01*
X-325609Y311661D01*
X-325215Y312055D01*
X-324953Y312350D01*
X-324756Y312514D01*
X-324723Y312580D01*
X-324691D01*
X-324395Y312809D01*
X-324100Y313039D01*
X-323444Y313465D01*
X-323149Y313629D01*
X-322919Y313760D01*
X-322755Y313826D01*
X-322690Y313859D01*
X-323346Y313957D01*
X-323969Y314088D01*
X-324527Y314252D01*
X-325051Y314416D01*
X-325543Y314613D01*
X-326003Y314810D01*
X-326396Y315007D01*
X-326757Y315204D01*
X-327052Y315400D01*
X-327315Y315597D01*
X-327544Y315761D01*
X-327741Y315892D01*
X-327872Y316024D01*
X-328003Y316122D01*
X-328036Y316155D01*
X-328069Y316188D01*
X-328364Y316548D01*
X-328659Y316909D01*
X-328889Y317303D01*
X-329086Y317664D01*
X-329381Y318418D01*
X-329578Y319140D01*
X-329709Y319763D01*
X-329742Y320025D01*
X-329775Y320255D01*
X-329807Y320452D01*
Y320583D01*
Y320681D01*
Y320714D01*
X-329775Y321468D01*
X-329643Y322190D01*
X-329479Y322846D01*
X-329283Y323404D01*
X-329086Y323863D01*
X-328922Y324224D01*
X-328856Y324355D01*
X-328791Y324453D01*
X-328758Y324486D01*
Y324519D01*
X-328331Y325109D01*
X-327872Y325634D01*
X-327413Y326060D01*
X-326954Y326388D01*
X-326560Y326651D01*
X-326232Y326815D01*
X-326101Y326880D01*
X-326003Y326913D01*
X-325970Y326946D01*
X-325937D01*
X-325609Y327077D01*
X-325215Y327176D01*
X-324395Y327340D01*
X-323543Y327471D01*
X-322723Y327536D01*
X-322329Y327569D01*
X-321968Y327602D01*
X-321673D01*
X-321378Y327635D01*
X-309635D01*
Y302412D01*
D02*
G37*
G36*
X-334924D02*
X-344502D01*
X-345387Y302444D01*
X-346175Y302477D01*
X-346863Y302543D01*
X-347454Y302608D01*
X-347913Y302674D01*
X-348110Y302707D01*
X-348274Y302740D01*
X-348405Y302772D01*
X-348503Y302805D01*
X-348569D01*
X-349159Y302969D01*
X-349717Y303166D01*
X-350176Y303396D01*
X-350570Y303592D01*
X-350898Y303756D01*
X-351127Y303920D01*
X-351291Y304019D01*
X-351324Y304052D01*
X-351718Y304412D01*
X-352079Y304773D01*
X-352407Y305167D01*
X-352669Y305560D01*
X-352899Y305888D01*
X-353063Y306151D01*
X-353161Y306348D01*
X-353194Y306413D01*
X-353456Y307004D01*
X-353620Y307561D01*
X-353751Y308119D01*
X-353850Y308611D01*
X-353915Y309070D01*
X-353948Y309398D01*
Y309529D01*
Y309628D01*
Y309660D01*
Y309693D01*
X-353883Y310480D01*
X-353751Y311202D01*
X-353555Y311858D01*
X-353325Y312416D01*
X-353095Y312875D01*
X-352899Y313203D01*
X-352833Y313334D01*
X-352767Y313432D01*
X-352702Y313465D01*
Y313498D01*
X-352210Y314056D01*
X-351652Y314548D01*
X-351062Y314941D01*
X-350504Y315269D01*
X-349979Y315532D01*
X-349750Y315630D01*
X-349586Y315696D01*
X-349422Y315761D01*
X-349291Y315794D01*
X-349225Y315827D01*
X-349192D01*
X-349815Y316155D01*
X-350340Y316548D01*
X-350799Y316909D01*
X-351193Y317270D01*
X-351488Y317598D01*
X-351685Y317860D01*
X-351816Y318024D01*
X-351849Y318090D01*
X-352144Y318648D01*
X-352374Y319172D01*
X-352505Y319697D01*
X-352636Y320189D01*
X-352702Y320583D01*
X-352735Y320911D01*
Y321009D01*
Y321108D01*
Y321140D01*
Y321173D01*
X-352702Y321829D01*
X-352571Y322420D01*
X-352407Y322977D01*
X-352243Y323469D01*
X-352046Y323896D01*
X-351882Y324224D01*
X-351751Y324420D01*
X-351718Y324453D01*
Y324486D01*
X-351324Y325044D01*
X-350865Y325536D01*
X-350439Y325929D01*
X-349979Y326257D01*
X-349586Y326520D01*
X-349291Y326716D01*
X-349159Y326782D01*
X-349061Y326815D01*
X-349028Y326848D01*
X-348995D01*
X-348307Y327110D01*
X-347552Y327307D01*
X-346765Y327438D01*
X-346043Y327536D01*
X-345387Y327602D01*
X-345092D01*
X-344863Y327635D01*
X-334924D01*
Y302412D01*
D02*
G37*
G36*
X-358606D02*
X-377400D01*
Y305396D01*
X-361951D01*
Y313990D01*
X-375859D01*
Y316975D01*
X-361951D01*
Y324650D01*
X-376810D01*
Y327635D01*
X-358606D01*
Y302412D01*
D02*
G37*
G36*
X-381894D02*
X-397638D01*
Y305396D01*
X-385239D01*
Y327635D01*
X-381894D01*
Y302412D01*
D02*
G37*
G36*
X-290677Y293825D02*
X-293760D01*
Y297367D01*
X-290677D01*
Y293825D01*
D02*
G37*
G36*
X-365067D02*
X-368151D01*
Y297367D01*
X-365067D01*
Y293825D01*
D02*
G37*
G36*
X-303502Y272144D02*
X-306487D01*
X-313375Y290413D01*
X-310160D01*
X-306126Y279261D01*
X-305863Y278540D01*
X-305634Y277851D01*
X-305437Y277261D01*
X-305273Y276769D01*
X-305142Y276342D01*
X-305043Y276047D01*
X-305011Y275850D01*
X-304978Y275817D01*
Y275785D01*
X-304781Y276473D01*
X-304584Y277162D01*
X-304387Y277785D01*
X-304191Y278343D01*
X-304027Y278802D01*
X-303895Y279163D01*
X-303863Y279294D01*
X-303830Y279393D01*
X-303797Y279425D01*
Y279458D01*
X-299894Y290413D01*
X-296614D01*
X-303502Y272144D01*
D02*
G37*
G36*
X-387863D02*
X-387732Y271816D01*
X-387634Y271586D01*
X-387601Y271422D01*
X-387568Y271389D01*
X-387437Y271061D01*
X-387339Y270766D01*
X-387142Y270241D01*
X-386978Y269848D01*
X-386847Y269520D01*
X-386748Y269290D01*
X-386683Y269159D01*
X-386617Y269093D01*
Y269061D01*
X-386289Y268634D01*
X-385961Y268339D01*
X-385830Y268241D01*
X-385699Y268175D01*
X-385633Y268109D01*
X-385600D01*
X-385371Y267978D01*
X-385108Y267913D01*
X-384551Y267781D01*
X-384321D01*
X-384124Y267749D01*
X-383960D01*
X-383370Y267781D01*
X-383075Y267847D01*
X-382812Y267913D01*
X-382583Y267945D01*
X-382386Y268011D01*
X-382255Y268044D01*
X-382222D01*
X-382550Y265157D01*
X-382943Y265026D01*
X-383304Y264928D01*
X-383665Y264862D01*
X-383960Y264829D01*
X-384190Y264797D01*
X-384387Y264764D01*
X-384551D01*
X-385075Y264797D01*
X-385567Y264862D01*
X-385994Y264993D01*
X-386355Y265125D01*
X-386683Y265256D01*
X-386879Y265387D01*
X-387043Y265453D01*
X-387076Y265485D01*
X-387470Y265781D01*
X-387831Y266141D01*
X-388159Y266502D01*
X-388421Y266863D01*
X-388651Y267191D01*
X-388847Y267486D01*
X-388946Y267650D01*
X-388979Y267716D01*
X-389110Y267945D01*
X-389241Y268208D01*
X-389503Y268831D01*
X-389799Y269520D01*
X-390094Y270209D01*
X-390323Y270832D01*
X-390455Y271127D01*
X-390520Y271357D01*
X-390619Y271553D01*
X-390684Y271717D01*
X-390717Y271816D01*
Y271849D01*
X-397638Y290413D01*
X-394555D01*
X-390651Y279753D01*
X-390389Y278999D01*
X-390127Y278245D01*
X-389897Y277556D01*
X-389700Y276933D01*
X-389569Y276408D01*
X-389503Y276178D01*
X-389438Y275981D01*
X-389405Y275817D01*
X-389372Y275719D01*
X-389339Y275653D01*
Y275621D01*
X-389110Y276441D01*
X-388880Y277228D01*
X-388651Y277949D01*
X-388454Y278573D01*
X-388290Y279097D01*
X-388224Y279327D01*
X-388159Y279491D01*
X-388093Y279655D01*
X-388060Y279753D01*
X-388027Y279819D01*
Y279852D01*
X-384190Y290413D01*
X-380910D01*
X-387863Y272144D01*
D02*
G37*
G36*
X-373431Y294907D02*
Y290413D01*
X-371135D01*
Y288019D01*
X-373431D01*
Y277490D01*
Y276998D01*
X-373464Y276539D01*
Y276113D01*
X-373497Y275752D01*
X-373530Y275391D01*
X-373563Y275096D01*
X-373595Y274833D01*
X-373628Y274604D01*
X-373694Y274243D01*
X-373727Y274013D01*
X-373792Y273849D01*
Y273817D01*
X-373956Y273521D01*
X-374153Y273259D01*
X-374383Y272997D01*
X-374612Y272800D01*
X-374809Y272636D01*
X-374940Y272537D01*
X-375071Y272472D01*
X-375104Y272439D01*
X-375465Y272275D01*
X-375891Y272144D01*
X-376318Y272045D01*
X-376744Y271980D01*
X-377105Y271947D01*
X-377433Y271914D01*
X-377695D01*
X-378515Y271947D01*
X-378909Y272013D01*
X-379270Y272045D01*
X-379598Y272111D01*
X-379827Y272144D01*
X-379991Y272177D01*
X-380057D01*
X-379631Y274899D01*
X-379335Y274866D01*
X-379073Y274833D01*
X-378811D01*
X-378614Y274801D01*
X-378253D01*
X-377794Y274833D01*
X-377466Y274899D01*
X-377335Y274932D01*
X-377236Y274965D01*
X-377203Y274997D01*
X-377171D01*
X-376941Y275194D01*
X-376777Y275391D01*
X-376679Y275522D01*
X-376646Y275588D01*
X-376613Y275785D01*
X-376580Y276014D01*
X-376547Y276309D01*
Y276605D01*
X-376515Y276867D01*
Y277097D01*
Y277261D01*
Y277326D01*
Y288019D01*
X-379631D01*
Y290413D01*
X-376515D01*
Y296777D01*
X-373431Y294907D01*
D02*
G37*
G36*
X-246069Y282771D02*
Y282049D01*
X-246102Y281361D01*
X-246167Y280705D01*
X-246233Y280081D01*
X-246299Y279524D01*
X-246364Y278999D01*
X-246463Y278540D01*
X-246561Y278113D01*
X-246627Y277720D01*
X-246725Y277392D01*
X-246791Y277097D01*
X-246889Y276867D01*
X-246922Y276670D01*
X-246987Y276539D01*
X-247020Y276473D01*
Y276441D01*
X-247447Y275621D01*
X-247939Y274932D01*
X-248463Y274309D01*
X-248988Y273817D01*
X-249480Y273423D01*
X-249874Y273161D01*
X-250005Y273062D01*
X-250136Y272997D01*
X-250202Y272931D01*
X-250235D01*
X-251120Y272537D01*
X-252104Y272242D01*
X-253055Y272013D01*
X-253974Y271881D01*
X-254400Y271816D01*
X-254794Y271783D01*
X-255155Y271750D01*
X-255450D01*
X-255712Y271717D01*
X-256040D01*
X-256696Y271750D01*
X-257352Y271783D01*
X-257943Y271849D01*
X-258500Y271947D01*
X-259025Y272045D01*
X-259484Y272144D01*
X-259943Y272275D01*
X-260337Y272406D01*
X-260698Y272537D01*
X-261026Y272669D01*
X-261288Y272767D01*
X-261518Y272865D01*
X-261682Y272964D01*
X-261813Y273029D01*
X-261879Y273095D01*
X-261911D01*
X-262305Y273357D01*
X-262699Y273653D01*
X-263355Y274276D01*
X-263879Y274866D01*
X-264306Y275457D01*
X-264634Y275949D01*
X-264765Y276178D01*
X-264863Y276375D01*
X-264929Y276506D01*
X-264995Y276637D01*
X-265027Y276703D01*
Y276736D01*
X-265191Y277162D01*
X-265323Y277621D01*
X-265552Y278605D01*
X-265683Y279622D01*
X-265815Y280606D01*
X-265847Y281033D01*
X-265880Y281459D01*
Y281820D01*
X-265913Y282148D01*
Y282410D01*
Y282607D01*
Y282738D01*
Y282771D01*
Y297367D01*
X-262567D01*
Y282804D01*
X-262535Y281951D01*
X-262502Y281164D01*
X-262436Y280442D01*
X-262338Y279786D01*
X-262207Y279196D01*
X-262075Y278671D01*
X-261944Y278212D01*
X-261780Y277818D01*
X-261649Y277457D01*
X-261485Y277162D01*
X-261354Y276900D01*
X-261255Y276703D01*
X-261124Y276572D01*
X-261059Y276473D01*
X-261026Y276408D01*
X-260993Y276375D01*
X-260665Y276080D01*
X-260304Y275850D01*
X-259911Y275621D01*
X-259517Y275424D01*
X-258631Y275129D01*
X-257779Y274932D01*
X-257385Y274866D01*
X-256991Y274833D01*
X-256631Y274801D01*
X-256335Y274768D01*
X-256106Y274735D01*
X-255745D01*
X-254958Y274768D01*
X-254269Y274866D01*
X-253646Y274997D01*
X-253121Y275161D01*
X-252695Y275293D01*
X-252367Y275424D01*
X-252170Y275522D01*
X-252137Y275555D01*
X-252104D01*
X-251579Y275916D01*
X-251153Y276277D01*
X-250792Y276703D01*
X-250497Y277064D01*
X-250267Y277425D01*
X-250136Y277687D01*
X-250038Y277884D01*
X-250005Y277917D01*
Y277949D01*
X-249907Y278277D01*
X-249808Y278605D01*
X-249677Y279360D01*
X-249546Y280180D01*
X-249480Y280967D01*
Y281328D01*
X-249447Y281689D01*
Y281984D01*
X-249415Y282279D01*
Y282476D01*
Y282673D01*
Y282771D01*
Y282804D01*
Y297367D01*
X-246069D01*
Y282771D01*
D02*
G37*
G36*
X-145734Y279097D02*
Y278409D01*
X-145767Y277818D01*
X-145799Y277326D01*
X-145832Y276933D01*
Y276605D01*
X-145865Y276375D01*
X-145898Y276244D01*
Y276211D01*
X-146029Y275719D01*
X-146160Y275260D01*
X-146324Y274866D01*
X-146488Y274538D01*
X-146619Y274243D01*
X-146751Y274046D01*
X-146816Y273915D01*
X-146849Y273882D01*
X-147144Y273554D01*
X-147472Y273259D01*
X-147833Y272997D01*
X-148161Y272767D01*
X-148456Y272603D01*
X-148719Y272439D01*
X-148883Y272373D01*
X-148948Y272341D01*
X-149473Y272144D01*
X-150031Y272013D01*
X-150523Y271881D01*
X-150982Y271816D01*
X-151375Y271783D01*
X-151703Y271750D01*
X-151966D01*
X-152622Y271783D01*
X-153278Y271881D01*
X-153868Y272045D01*
X-154426Y272242D01*
X-154918Y272472D01*
X-155410Y272734D01*
X-155836Y272997D01*
X-156230Y273292D01*
X-156591Y273587D01*
X-156886Y273849D01*
X-157148Y274112D01*
X-157378Y274341D01*
X-157542Y274538D01*
X-157673Y274702D01*
X-157739Y274801D01*
X-157771Y274833D01*
Y272144D01*
X-160527D01*
Y290413D01*
X-157443D01*
Y280606D01*
X-157411Y279786D01*
X-157378Y279065D01*
X-157279Y278441D01*
X-157181Y277949D01*
X-157083Y277556D01*
X-157017Y277261D01*
X-156951Y277097D01*
X-156919Y277031D01*
X-156689Y276605D01*
X-156427Y276211D01*
X-156164Y275883D01*
X-155869Y275621D01*
X-155607Y275391D01*
X-155377Y275227D01*
X-155246Y275129D01*
X-155180Y275096D01*
X-154721Y274866D01*
X-154262Y274702D01*
X-153803Y274571D01*
X-153409Y274505D01*
X-153081Y274440D01*
X-152786Y274407D01*
X-152556D01*
X-152064Y274440D01*
X-151605Y274505D01*
X-151211Y274637D01*
X-150883Y274768D01*
X-150588Y274866D01*
X-150391Y274997D01*
X-150260Y275063D01*
X-150227Y275096D01*
X-149899Y275391D01*
X-149637Y275686D01*
X-149407Y276014D01*
X-149243Y276309D01*
X-149112Y276572D01*
X-149047Y276801D01*
X-148981Y276933D01*
Y276998D01*
X-148948Y277162D01*
X-148915Y277392D01*
X-148883Y277884D01*
X-148850Y278409D01*
Y278966D01*
X-148817Y279458D01*
Y279688D01*
Y279885D01*
Y280049D01*
Y280180D01*
Y280245D01*
Y280278D01*
Y290413D01*
X-145734D01*
Y279097D01*
D02*
G37*
G36*
X-196639D02*
Y278409D01*
X-196672Y277818D01*
X-196705Y277326D01*
X-196738Y276933D01*
Y276605D01*
X-196771Y276375D01*
X-196803Y276244D01*
Y276211D01*
X-196935Y275719D01*
X-197066Y275260D01*
X-197230Y274866D01*
X-197394Y274538D01*
X-197525Y274243D01*
X-197656Y274046D01*
X-197722Y273915D01*
X-197755Y273882D01*
X-198050Y273554D01*
X-198378Y273259D01*
X-198739Y272997D01*
X-199067Y272767D01*
X-199362Y272603D01*
X-199624Y272439D01*
X-199788Y272373D01*
X-199854Y272341D01*
X-200379Y272144D01*
X-200936Y272013D01*
X-201428Y271881D01*
X-201887Y271816D01*
X-202281Y271783D01*
X-202609Y271750D01*
X-202871D01*
X-203527Y271783D01*
X-204183Y271881D01*
X-204774Y272045D01*
X-205331Y272242D01*
X-205823Y272472D01*
X-206315Y272734D01*
X-206742Y272997D01*
X-207135Y273292D01*
X-207496Y273587D01*
X-207791Y273849D01*
X-208054Y274112D01*
X-208283Y274341D01*
X-208447Y274538D01*
X-208579Y274702D01*
X-208644Y274801D01*
X-208677Y274833D01*
Y272144D01*
X-211432D01*
Y290413D01*
X-208349D01*
Y280606D01*
X-208316Y279786D01*
X-208283Y279065D01*
X-208185Y278441D01*
X-208087Y277949D01*
X-207988Y277556D01*
X-207923Y277261D01*
X-207857Y277097D01*
X-207824Y277031D01*
X-207595Y276605D01*
X-207332Y276211D01*
X-207070Y275883D01*
X-206775Y275621D01*
X-206512Y275391D01*
X-206283Y275227D01*
X-206151Y275129D01*
X-206086Y275096D01*
X-205627Y274866D01*
X-205167Y274702D01*
X-204708Y274571D01*
X-204315Y274505D01*
X-203987Y274440D01*
X-203691Y274407D01*
X-203462D01*
X-202970Y274440D01*
X-202511Y274505D01*
X-202117Y274637D01*
X-201789Y274768D01*
X-201494Y274866D01*
X-201297Y274997D01*
X-201166Y275063D01*
X-201133Y275096D01*
X-200805Y275391D01*
X-200543Y275686D01*
X-200313Y276014D01*
X-200149Y276309D01*
X-200018Y276572D01*
X-199952Y276801D01*
X-199887Y276933D01*
Y276998D01*
X-199854Y277162D01*
X-199821Y277392D01*
X-199788Y277884D01*
X-199755Y278409D01*
Y278966D01*
X-199723Y279458D01*
Y279688D01*
Y279885D01*
Y280049D01*
Y280180D01*
Y280245D01*
Y280278D01*
Y290413D01*
X-196639D01*
Y279097D01*
D02*
G37*
G36*
X-223043Y290774D02*
X-222387Y290709D01*
X-221764Y290577D01*
X-221174Y290413D01*
X-220649Y290217D01*
X-220124Y289987D01*
X-219665Y289757D01*
X-219239Y289528D01*
X-218878Y289298D01*
X-218550Y289069D01*
X-218255Y288839D01*
X-218025Y288642D01*
X-217828Y288478D01*
X-217697Y288347D01*
X-217631Y288281D01*
X-217599Y288249D01*
X-217172Y287757D01*
X-216811Y287232D01*
X-216516Y286641D01*
X-216221Y286051D01*
X-215991Y285461D01*
X-215827Y284870D01*
X-215663Y284280D01*
X-215532Y283722D01*
X-215434Y283197D01*
X-215368Y282705D01*
X-215303Y282246D01*
X-215270Y281853D01*
Y281557D01*
X-215237Y281295D01*
Y281164D01*
Y281098D01*
X-215270Y280278D01*
X-215335Y279524D01*
X-215467Y278835D01*
X-215598Y278146D01*
X-215762Y277556D01*
X-215959Y276965D01*
X-216188Y276473D01*
X-216418Y275981D01*
X-216615Y275588D01*
X-216844Y275227D01*
X-217041Y274932D01*
X-217205Y274669D01*
X-217336Y274473D01*
X-217467Y274341D01*
X-217533Y274243D01*
X-217566Y274210D01*
X-218025Y273784D01*
X-218517Y273390D01*
X-219042Y273062D01*
X-219567Y272800D01*
X-220091Y272537D01*
X-220616Y272341D01*
X-221141Y272177D01*
X-221633Y272045D01*
X-222092Y271947D01*
X-222551Y271881D01*
X-222945Y271816D01*
X-223273Y271783D01*
X-223535D01*
X-223765Y271750D01*
X-223929D01*
X-224519Y271783D01*
X-225077Y271816D01*
X-226094Y271980D01*
X-226553Y272111D01*
X-226979Y272242D01*
X-227373Y272373D01*
X-227734Y272537D01*
X-228062Y272669D01*
X-228324Y272800D01*
X-228587Y272931D01*
X-228783Y273062D01*
X-228947Y273161D01*
X-229046Y273226D01*
X-229111Y273292D01*
X-229144D01*
X-229833Y273915D01*
X-230423Y274637D01*
X-230915Y275358D01*
X-231309Y276047D01*
X-231571Y276670D01*
X-231703Y276965D01*
X-231768Y277195D01*
X-231867Y277392D01*
X-231899Y277523D01*
X-231932Y277621D01*
Y277654D01*
X-228718Y278081D01*
X-228455Y277392D01*
X-228127Y276801D01*
X-227799Y276277D01*
X-227504Y275883D01*
X-227242Y275588D01*
X-227012Y275358D01*
X-226881Y275227D01*
X-226815Y275194D01*
X-226356Y274899D01*
X-225864Y274669D01*
X-225372Y274538D01*
X-224946Y274407D01*
X-224519Y274341D01*
X-224224Y274309D01*
X-223929D01*
X-223503Y274341D01*
X-223109Y274374D01*
X-222355Y274571D01*
X-221699Y274801D01*
X-221141Y275096D01*
X-220715Y275391D01*
X-220354Y275653D01*
X-220255Y275752D01*
X-220157Y275817D01*
X-220124Y275850D01*
X-220091Y275883D01*
X-219829Y276211D01*
X-219599Y276539D01*
X-219206Y277261D01*
X-218911Y278015D01*
X-218681Y278769D01*
X-218550Y279425D01*
X-218517Y279721D01*
X-218484Y279983D01*
X-218451Y280180D01*
X-218419Y280344D01*
Y280442D01*
Y280475D01*
X-232031D01*
X-232063Y280836D01*
Y281098D01*
Y281229D01*
Y281295D01*
X-232031Y282115D01*
X-231965Y282902D01*
X-231834Y283624D01*
X-231703Y284313D01*
X-231539Y284936D01*
X-231342Y285493D01*
X-231112Y286018D01*
X-230915Y286510D01*
X-230686Y286937D01*
X-230456Y287297D01*
X-230259Y287593D01*
X-230095Y287855D01*
X-229964Y288052D01*
X-229833Y288183D01*
X-229767Y288281D01*
X-229735Y288314D01*
X-229275Y288741D01*
X-228816Y289134D01*
X-228324Y289462D01*
X-227799Y289757D01*
X-227307Y289987D01*
X-226815Y290184D01*
X-226323Y290381D01*
X-225864Y290512D01*
X-225438Y290610D01*
X-225011Y290676D01*
X-224651Y290741D01*
X-224355Y290774D01*
X-224093Y290807D01*
X-223732D01*
X-223043Y290774D01*
D02*
G37*
G36*
X-322887D02*
X-322231Y290709D01*
X-321607Y290577D01*
X-321017Y290413D01*
X-320492Y290217D01*
X-319967Y289987D01*
X-319508Y289757D01*
X-319082Y289528D01*
X-318721Y289298D01*
X-318393Y289069D01*
X-318098Y288839D01*
X-317868Y288642D01*
X-317671Y288478D01*
X-317540Y288347D01*
X-317475Y288281D01*
X-317442Y288249D01*
X-317015Y287757D01*
X-316655Y287232D01*
X-316359Y286641D01*
X-316064Y286051D01*
X-315835Y285461D01*
X-315671Y284870D01*
X-315507Y284280D01*
X-315375Y283722D01*
X-315277Y283197D01*
X-315211Y282705D01*
X-315146Y282246D01*
X-315113Y281853D01*
Y281557D01*
X-315080Y281295D01*
Y281164D01*
Y281098D01*
X-315113Y280278D01*
X-315179Y279524D01*
X-315310Y278835D01*
X-315441Y278146D01*
X-315605Y277556D01*
X-315802Y276965D01*
X-316031Y276473D01*
X-316261Y275981D01*
X-316458Y275588D01*
X-316687Y275227D01*
X-316884Y274932D01*
X-317048Y274669D01*
X-317179Y274473D01*
X-317311Y274341D01*
X-317376Y274243D01*
X-317409Y274210D01*
X-317868Y273784D01*
X-318360Y273390D01*
X-318885Y273062D01*
X-319410Y272800D01*
X-319935Y272537D01*
X-320459Y272341D01*
X-320984Y272177D01*
X-321476Y272045D01*
X-321935Y271947D01*
X-322395Y271881D01*
X-322788Y271816D01*
X-323116Y271783D01*
X-323379D01*
X-323608Y271750D01*
X-323772D01*
X-324363Y271783D01*
X-324920Y271816D01*
X-325937Y271980D01*
X-326396Y272111D01*
X-326823Y272242D01*
X-327216Y272373D01*
X-327577Y272537D01*
X-327905Y272669D01*
X-328167Y272800D01*
X-328430Y272931D01*
X-328627Y273062D01*
X-328791Y273161D01*
X-328889Y273226D01*
X-328955Y273292D01*
X-328987D01*
X-329676Y273915D01*
X-330267Y274637D01*
X-330759Y275358D01*
X-331152Y276047D01*
X-331415Y276670D01*
X-331546Y276965D01*
X-331611Y277195D01*
X-331710Y277392D01*
X-331743Y277523D01*
X-331775Y277621D01*
Y277654D01*
X-328561Y278081D01*
X-328299Y277392D01*
X-327971Y276801D01*
X-327643Y276277D01*
X-327347Y275883D01*
X-327085Y275588D01*
X-326855Y275358D01*
X-326724Y275227D01*
X-326659Y275194D01*
X-326199Y274899D01*
X-325707Y274669D01*
X-325215Y274538D01*
X-324789Y274407D01*
X-324363Y274341D01*
X-324067Y274309D01*
X-323772D01*
X-323346Y274341D01*
X-322952Y274374D01*
X-322198Y274571D01*
X-321542Y274801D01*
X-320984Y275096D01*
X-320558Y275391D01*
X-320197Y275653D01*
X-320099Y275752D01*
X-320000Y275817D01*
X-319967Y275850D01*
X-319935Y275883D01*
X-319672Y276211D01*
X-319443Y276539D01*
X-319049Y277261D01*
X-318754Y278015D01*
X-318524Y278769D01*
X-318393Y279425D01*
X-318360Y279721D01*
X-318327Y279983D01*
X-318295Y280180D01*
X-318262Y280344D01*
Y280442D01*
Y280475D01*
X-331874D01*
X-331907Y280836D01*
Y281098D01*
Y281229D01*
Y281295D01*
X-331874Y282115D01*
X-331808Y282902D01*
X-331677Y283624D01*
X-331546Y284313D01*
X-331382Y284936D01*
X-331185Y285493D01*
X-330955Y286018D01*
X-330759Y286510D01*
X-330529Y286937D01*
X-330299Y287297D01*
X-330103Y287593D01*
X-329939Y287855D01*
X-329807Y288052D01*
X-329676Y288183D01*
X-329611Y288281D01*
X-329578Y288314D01*
X-329119Y288741D01*
X-328659Y289134D01*
X-328167Y289462D01*
X-327643Y289757D01*
X-327151Y289987D01*
X-326659Y290184D01*
X-326167Y290381D01*
X-325707Y290512D01*
X-325281Y290610D01*
X-324855Y290676D01*
X-324494Y290741D01*
X-324199Y290774D01*
X-323936Y290807D01*
X-323575D01*
X-322887Y290774D01*
D02*
G37*
G36*
X-122708Y272144D02*
X-126054D01*
Y282377D01*
X-132483D01*
X-133434Y282410D01*
X-134319Y282476D01*
X-135139Y282574D01*
X-135894Y282738D01*
X-136550Y282902D01*
X-137173Y283099D01*
X-137698Y283296D01*
X-138190Y283493D01*
X-138583Y283689D01*
X-138944Y283919D01*
X-139239Y284083D01*
X-139469Y284247D01*
X-139633Y284411D01*
X-139764Y284509D01*
X-139830Y284575D01*
X-139863Y284608D01*
X-140223Y285034D01*
X-140551Y285493D01*
X-140814Y285953D01*
X-141043Y286412D01*
X-141273Y286871D01*
X-141437Y287297D01*
X-141667Y288183D01*
X-141765Y288544D01*
X-141831Y288905D01*
X-141863Y289233D01*
X-141896Y289528D01*
X-141929Y289757D01*
Y289921D01*
Y290020D01*
Y290053D01*
X-141896Y290741D01*
X-141798Y291365D01*
X-141667Y291955D01*
X-141535Y292480D01*
X-141404Y292906D01*
X-141273Y293234D01*
X-141207Y293333D01*
X-141175Y293431D01*
X-141142Y293464D01*
Y293497D01*
X-140847Y294054D01*
X-140519Y294546D01*
X-140158Y294973D01*
X-139830Y295301D01*
X-139567Y295563D01*
X-139305Y295760D01*
X-139174Y295891D01*
X-139108Y295924D01*
X-138616Y296219D01*
X-138091Y296481D01*
X-137599Y296678D01*
X-137107Y296842D01*
X-136681Y296973D01*
X-136320Y297039D01*
X-136189Y297072D01*
X-136123Y297105D01*
X-136025D01*
X-135500Y297203D01*
X-134877Y297269D01*
X-134221Y297301D01*
X-133631Y297334D01*
X-133073Y297367D01*
X-122708D01*
Y272144D01*
D02*
G37*
G36*
X-171679Y290774D02*
X-171318Y290709D01*
X-170957Y290610D01*
X-170662Y290512D01*
X-170432Y290381D01*
X-170235Y290282D01*
X-170104Y290217D01*
X-170071Y290184D01*
X-169743Y289889D01*
X-169383Y289528D01*
X-169055Y289101D01*
X-168759Y288642D01*
X-168530Y288249D01*
X-168300Y287921D01*
X-168235Y287789D01*
X-168169Y287691D01*
X-168136Y287625D01*
Y290413D01*
X-165348D01*
Y272144D01*
X-168431D01*
Y281656D01*
X-168464Y282377D01*
X-168497Y283066D01*
X-168595Y283657D01*
X-168694Y284214D01*
X-168759Y284641D01*
X-168858Y284969D01*
X-168891Y285100D01*
Y285198D01*
X-168923Y285231D01*
Y285264D01*
X-169087Y285657D01*
X-169251Y285985D01*
X-169448Y286281D01*
X-169645Y286510D01*
X-169809Y286707D01*
X-169940Y286871D01*
X-170039Y286937D01*
X-170071Y286969D01*
X-170399Y287166D01*
X-170695Y287330D01*
X-171023Y287429D01*
X-171285Y287527D01*
X-171547Y287560D01*
X-171744Y287593D01*
X-171908D01*
X-172335Y287560D01*
X-172761Y287494D01*
X-173155Y287396D01*
X-173483Y287265D01*
X-173778Y287133D01*
X-174007Y287035D01*
X-174139Y286969D01*
X-174204Y286937D01*
X-175287Y289790D01*
X-174663Y290118D01*
X-174106Y290381D01*
X-173548Y290545D01*
X-173056Y290676D01*
X-172663Y290741D01*
X-172335Y290807D01*
X-172072D01*
X-171679Y290774D01*
D02*
G37*
G36*
X-278967D02*
X-278311Y290676D01*
X-277721Y290545D01*
X-277163Y290348D01*
X-276639Y290118D01*
X-276179Y289856D01*
X-275753Y289593D01*
X-275359Y289298D01*
X-274999Y289003D01*
X-274703Y288741D01*
X-274474Y288478D01*
X-274244Y288249D01*
X-274080Y288085D01*
X-273982Y287921D01*
X-273916Y287822D01*
X-273883Y287789D01*
Y290413D01*
X-271095D01*
Y272144D01*
X-274179D01*
Y282082D01*
X-274211Y282705D01*
X-274244Y283296D01*
X-274310Y283821D01*
X-274408Y284313D01*
X-274507Y284739D01*
X-274638Y285133D01*
X-274769Y285461D01*
X-274900Y285789D01*
X-275031Y286051D01*
X-275130Y286248D01*
X-275261Y286445D01*
X-275359Y286576D01*
X-275458Y286707D01*
X-275523Y286773D01*
X-275589Y286838D01*
X-276147Y287265D01*
X-276737Y287593D01*
X-277327Y287822D01*
X-277852Y287953D01*
X-278311Y288052D01*
X-278705Y288085D01*
X-278836Y288117D01*
X-279033D01*
X-279459Y288085D01*
X-279886Y288019D01*
X-280247Y287921D01*
X-280542Y287822D01*
X-280804Y287724D01*
X-281001Y287625D01*
X-281132Y287560D01*
X-281165Y287527D01*
X-281493Y287297D01*
X-281755Y287068D01*
X-281985Y286805D01*
X-282149Y286576D01*
X-282280Y286346D01*
X-282379Y286182D01*
X-282444Y286051D01*
Y286018D01*
X-282575Y285625D01*
X-282674Y285198D01*
X-282739Y284739D01*
X-282805Y284280D01*
Y283886D01*
X-282838Y283525D01*
Y283394D01*
Y283329D01*
Y283263D01*
Y283230D01*
Y272144D01*
X-285921D01*
Y283361D01*
Y284116D01*
X-285888Y284739D01*
X-285855Y285231D01*
X-285823Y285657D01*
X-285790Y285953D01*
X-285757Y286182D01*
X-285724Y286313D01*
Y286346D01*
X-285593Y286838D01*
X-285462Y287265D01*
X-285298Y287658D01*
X-285167Y287986D01*
X-285003Y288281D01*
X-284871Y288478D01*
X-284806Y288609D01*
X-284773Y288642D01*
X-284478Y288970D01*
X-284150Y289298D01*
X-283822Y289561D01*
X-283494Y289757D01*
X-283166Y289954D01*
X-282936Y290085D01*
X-282772Y290151D01*
X-282707Y290184D01*
X-282182Y290381D01*
X-281657Y290545D01*
X-281132Y290643D01*
X-280673Y290741D01*
X-280247Y290774D01*
X-279951Y290807D01*
X-279656D01*
X-278967Y290774D01*
D02*
G37*
G36*
X-290677Y272144D02*
X-293760D01*
Y290413D01*
X-290677D01*
Y272144D01*
D02*
G37*
G36*
X-342009Y290774D02*
X-341648Y290709D01*
X-341287Y290610D01*
X-340992Y290512D01*
X-340763Y290381D01*
X-340566Y290282D01*
X-340435Y290217D01*
X-340402Y290184D01*
X-340074Y289889D01*
X-339713Y289528D01*
X-339385Y289101D01*
X-339090Y288642D01*
X-338860Y288249D01*
X-338631Y287921D01*
X-338565Y287789D01*
X-338499Y287691D01*
X-338467Y287625D01*
Y290413D01*
X-335679D01*
Y272144D01*
X-338762D01*
Y281656D01*
X-338795Y282377D01*
X-338827Y283066D01*
X-338926Y283657D01*
X-339024Y284214D01*
X-339090Y284641D01*
X-339188Y284969D01*
X-339221Y285100D01*
Y285198D01*
X-339254Y285231D01*
Y285264D01*
X-339418Y285657D01*
X-339582Y285985D01*
X-339779Y286281D01*
X-339975Y286510D01*
X-340139Y286707D01*
X-340271Y286871D01*
X-340369Y286937D01*
X-340402Y286969D01*
X-340730Y287166D01*
X-341025Y287330D01*
X-341353Y287429D01*
X-341615Y287527D01*
X-341878Y287560D01*
X-342075Y287593D01*
X-342239D01*
X-342665Y287560D01*
X-343091Y287494D01*
X-343485Y287396D01*
X-343813Y287265D01*
X-344108Y287133D01*
X-344338Y287035D01*
X-344469Y286969D01*
X-344535Y286937D01*
X-345617Y289790D01*
X-344994Y290118D01*
X-344436Y290381D01*
X-343879Y290545D01*
X-343387Y290676D01*
X-342993Y290741D01*
X-342665Y290807D01*
X-342403D01*
X-342009Y290774D01*
D02*
G37*
G36*
X-365067Y272144D02*
X-368151D01*
Y290413D01*
X-365067D01*
Y272144D01*
D02*
G37*
G36*
X-188735Y288281D02*
X-188407Y288675D01*
X-188046Y289036D01*
X-187685Y289331D01*
X-187357Y289593D01*
X-187062Y289823D01*
X-186832Y289954D01*
X-186668Y290053D01*
X-186603Y290085D01*
X-186111Y290315D01*
X-185619Y290512D01*
X-185127Y290643D01*
X-184667Y290709D01*
X-184274Y290774D01*
X-183946Y290807D01*
X-183683D01*
X-182863Y290741D01*
X-182076Y290610D01*
X-181387Y290413D01*
X-180797Y290217D01*
X-180272Y289987D01*
X-180075Y289889D01*
X-179911Y289790D01*
X-179780Y289692D01*
X-179682Y289659D01*
X-179616Y289593D01*
X-179583D01*
X-178960Y289101D01*
X-178403Y288577D01*
X-177943Y287986D01*
X-177550Y287461D01*
X-177255Y286937D01*
X-177123Y286740D01*
X-177025Y286543D01*
X-176959Y286412D01*
X-176894Y286281D01*
X-176861Y286215D01*
Y286182D01*
X-176566Y285329D01*
X-176336Y284477D01*
X-176205Y283657D01*
X-176074Y282869D01*
X-176041Y282541D01*
X-176008Y282213D01*
Y281951D01*
X-175975Y281689D01*
Y281492D01*
Y281361D01*
Y281262D01*
Y281229D01*
X-176008Y280213D01*
X-176139Y279294D01*
X-176303Y278441D01*
X-176467Y277720D01*
X-176566Y277392D01*
X-176664Y277097D01*
X-176730Y276867D01*
X-176795Y276670D01*
X-176861Y276506D01*
X-176927Y276375D01*
X-176959Y276309D01*
Y276277D01*
X-177386Y275522D01*
X-177845Y274866D01*
X-178304Y274276D01*
X-178763Y273817D01*
X-179157Y273423D01*
X-179485Y273161D01*
X-179616Y273062D01*
X-179715Y272997D01*
X-179747Y272931D01*
X-179780D01*
X-180469Y272537D01*
X-181191Y272242D01*
X-181879Y272045D01*
X-182503Y271914D01*
X-183027Y271816D01*
X-183257Y271783D01*
X-183454D01*
X-183585Y271750D01*
X-183815D01*
X-184438Y271783D01*
X-184995Y271881D01*
X-185553Y272013D01*
X-186045Y272177D01*
X-186504Y272373D01*
X-186931Y272603D01*
X-187291Y272865D01*
X-187652Y273128D01*
X-187947Y273357D01*
X-188210Y273620D01*
X-188439Y273849D01*
X-188603Y274046D01*
X-188735Y274210D01*
X-188866Y274341D01*
X-188899Y274440D01*
X-188931Y274473D01*
Y272144D01*
X-191818D01*
Y297367D01*
X-188735D01*
Y288281D01*
D02*
G37*
G36*
X-352439Y290741D02*
X-351980Y290676D01*
X-351587Y290610D01*
X-351226Y290545D01*
X-350996Y290479D01*
X-350832Y290446D01*
X-350767Y290413D01*
X-350340Y290282D01*
X-349947Y290118D01*
X-349586Y289987D01*
X-349323Y289823D01*
X-349094Y289725D01*
X-348930Y289626D01*
X-348831Y289561D01*
X-348799Y289528D01*
X-348471Y289265D01*
X-348175Y288970D01*
X-347913Y288675D01*
X-347683Y288413D01*
X-347519Y288150D01*
X-347388Y287953D01*
X-347323Y287822D01*
X-347290Y287789D01*
X-347093Y287396D01*
X-346962Y287002D01*
X-346863Y286609D01*
X-346798Y286281D01*
X-346765Y285953D01*
X-346732Y285723D01*
Y285592D01*
Y285526D01*
X-346765Y285034D01*
X-346831Y284575D01*
X-346929Y284149D01*
X-347060Y283788D01*
X-347191Y283493D01*
X-347290Y283263D01*
X-347355Y283132D01*
X-347388Y283066D01*
X-347683Y282673D01*
X-347979Y282345D01*
X-348339Y282049D01*
X-348635Y281820D01*
X-348930Y281623D01*
X-349159Y281492D01*
X-349323Y281393D01*
X-349389Y281361D01*
X-349651Y281229D01*
X-349979Y281131D01*
X-350307Y281000D01*
X-350668Y280869D01*
X-351455Y280606D01*
X-352243Y280377D01*
X-352964Y280180D01*
X-353292Y280081D01*
X-353555Y280016D01*
X-353784Y279950D01*
X-353948Y279885D01*
X-354079Y279852D01*
X-354112D01*
X-354571Y279753D01*
X-354965Y279622D01*
X-355359Y279524D01*
X-355687Y279425D01*
X-355982Y279327D01*
X-356244Y279261D01*
X-356441Y279196D01*
X-356638Y279097D01*
X-356966Y278999D01*
X-357163Y278901D01*
X-357261Y278868D01*
X-357294Y278835D01*
X-357589Y278573D01*
X-357819Y278310D01*
X-357983Y278048D01*
X-358114Y277785D01*
X-358179Y277556D01*
X-358212Y277359D01*
Y277228D01*
Y277195D01*
X-358179Y276769D01*
X-358048Y276375D01*
X-357884Y276047D01*
X-357687Y275752D01*
X-357491Y275489D01*
X-357327Y275325D01*
X-357195Y275194D01*
X-357163Y275161D01*
X-356736Y274866D01*
X-356211Y274669D01*
X-355687Y274505D01*
X-355195Y274407D01*
X-354703Y274341D01*
X-354342Y274309D01*
X-353981D01*
X-353227Y274341D01*
X-352571Y274473D01*
X-352013Y274604D01*
X-351521Y274801D01*
X-351160Y274965D01*
X-350898Y275129D01*
X-350734Y275227D01*
X-350668Y275260D01*
X-350275Y275653D01*
X-349947Y276113D01*
X-349717Y276572D01*
X-349520Y277031D01*
X-349389Y277457D01*
X-349323Y277785D01*
X-349291Y277917D01*
X-349258Y278015D01*
Y278048D01*
Y278081D01*
X-346207Y277589D01*
X-346306Y277064D01*
X-346437Y276572D01*
X-346601Y276113D01*
X-346798Y275686D01*
X-346962Y275293D01*
X-347159Y274932D01*
X-347388Y274604D01*
X-347585Y274309D01*
X-347782Y274046D01*
X-347946Y273817D01*
X-348110Y273620D01*
X-348274Y273456D01*
X-348405Y273357D01*
X-348503Y273259D01*
X-348536Y273226D01*
X-348569Y273193D01*
X-348930Y272931D01*
X-349356Y272734D01*
X-350209Y272373D01*
X-351127Y272111D01*
X-351980Y271947D01*
X-352407Y271881D01*
X-352800Y271816D01*
X-353128Y271783D01*
X-353423D01*
X-353686Y271750D01*
X-354014D01*
X-354801Y271783D01*
X-355523Y271849D01*
X-356179Y271980D01*
X-356736Y272111D01*
X-357195Y272242D01*
X-357556Y272373D01*
X-357687Y272406D01*
X-357786Y272439D01*
X-357819Y272472D01*
X-357851D01*
X-358442Y272767D01*
X-358967Y273128D01*
X-359426Y273456D01*
X-359819Y273817D01*
X-360082Y274112D01*
X-360311Y274341D01*
X-360443Y274505D01*
X-360475Y274571D01*
X-360771Y275096D01*
X-361000Y275621D01*
X-361164Y276113D01*
X-361295Y276572D01*
X-361361Y276965D01*
X-361394Y277261D01*
Y277457D01*
Y277490D01*
Y277523D01*
X-361361Y278081D01*
X-361263Y278605D01*
X-361164Y279032D01*
X-361033Y279425D01*
X-360869Y279721D01*
X-360771Y279950D01*
X-360672Y280114D01*
X-360639Y280147D01*
X-360344Y280541D01*
X-359983Y280869D01*
X-359655Y281131D01*
X-359327Y281361D01*
X-359032Y281557D01*
X-358803Y281689D01*
X-358639Y281754D01*
X-358573Y281787D01*
X-358311Y281885D01*
X-358015Y282017D01*
X-357327Y282246D01*
X-356572Y282476D01*
X-355818Y282705D01*
X-355129Y282902D01*
X-354801Y282968D01*
X-354539Y283066D01*
X-354342Y283132D01*
X-354145Y283165D01*
X-354047Y283197D01*
X-354014D01*
X-353620Y283296D01*
X-353259Y283427D01*
X-352931Y283493D01*
X-352636Y283591D01*
X-352374Y283657D01*
X-352144Y283722D01*
X-351783Y283821D01*
X-351521Y283886D01*
X-351357Y283952D01*
X-351291Y283985D01*
X-351259D01*
X-350996Y284116D01*
X-350734Y284247D01*
X-350537Y284378D01*
X-350373Y284509D01*
X-350242Y284641D01*
X-350143Y284739D01*
X-350111Y284772D01*
X-350078Y284805D01*
X-349947Y285001D01*
X-349881Y285198D01*
X-349750Y285526D01*
Y285690D01*
X-349717Y285789D01*
Y285854D01*
Y285887D01*
X-349750Y286248D01*
X-349848Y286543D01*
X-350012Y286838D01*
X-350176Y287068D01*
X-350307Y287265D01*
X-350471Y287396D01*
X-350570Y287494D01*
X-350603Y287527D01*
X-350996Y287757D01*
X-351455Y287953D01*
X-351980Y288085D01*
X-352472Y288150D01*
X-352931Y288216D01*
X-353292Y288249D01*
X-353653D01*
X-354309Y288216D01*
X-354867Y288117D01*
X-355359Y287986D01*
X-355752Y287855D01*
X-356080Y287691D01*
X-356277Y287560D01*
X-356441Y287461D01*
X-356474Y287429D01*
X-356802Y287101D01*
X-357064Y286773D01*
X-357294Y286412D01*
X-357458Y286051D01*
X-357556Y285756D01*
X-357622Y285493D01*
X-357687Y285329D01*
Y285264D01*
X-360705Y285690D01*
X-360574Y286313D01*
X-360410Y286871D01*
X-360246Y287330D01*
X-360049Y287724D01*
X-359885Y288052D01*
X-359754Y288281D01*
X-359655Y288445D01*
X-359623Y288478D01*
X-359295Y288872D01*
X-358901Y289200D01*
X-358507Y289495D01*
X-358114Y289725D01*
X-357753Y289921D01*
X-357458Y290085D01*
X-357261Y290151D01*
X-357228Y290184D01*
X-357195D01*
X-356572Y290381D01*
X-355949Y290545D01*
X-355293Y290643D01*
X-354735Y290741D01*
X-354211Y290774D01*
X-354014D01*
X-353817Y290807D01*
X-352931D01*
X-352439Y290741D01*
D02*
G37*
G36*
X-230019Y47641D02*
X-229970Y47616D01*
X-229946Y47542D01*
X-229872Y47469D01*
X-229724Y47223D01*
X-229577Y46903D01*
X-229405Y46534D01*
X-229257Y46091D01*
X-229159Y45648D01*
X-229109Y45156D01*
Y45058D01*
X-229134Y44959D01*
Y44812D01*
X-229183Y44640D01*
X-229232Y44418D01*
X-229281Y44197D01*
X-229380Y43951D01*
X-229503Y43705D01*
X-229626Y43434D01*
X-229798Y43164D01*
X-230019Y42893D01*
X-230266Y42623D01*
X-230536Y42352D01*
X-230881Y42106D01*
X-231250Y41885D01*
X-231274D01*
X-231348Y41835D01*
X-231471Y41786D01*
X-231643Y41712D01*
X-231864Y41614D01*
X-232135Y41516D01*
X-232455Y41417D01*
X-232824Y41319D01*
X-233242Y41220D01*
X-233709Y41122D01*
X-234226Y41023D01*
X-234767Y40925D01*
X-235358Y40851D01*
X-235997Y40802D01*
X-236686Y40778D01*
X-237424Y40753D01*
X-237473D01*
X-237596D01*
X-237818D01*
X-238088Y40778D01*
X-238408D01*
X-238802Y40802D01*
X-239244Y40851D01*
X-239712Y40901D01*
X-240204Y40950D01*
X-240696Y41023D01*
X-241754Y41220D01*
X-242762Y41516D01*
X-243230Y41688D01*
X-243673Y41885D01*
X-243697Y41909D01*
X-243771Y41934D01*
X-243894Y42008D01*
X-244017Y42106D01*
X-244189Y42229D01*
X-244386Y42377D01*
X-244583Y42549D01*
X-244804Y42745D01*
X-245025Y42967D01*
X-245222Y43213D01*
X-245419Y43483D01*
X-245591Y43779D01*
X-245739Y44099D01*
X-245837Y44443D01*
X-245911Y44812D01*
X-245936Y45206D01*
Y45255D01*
X-245911Y45378D01*
X-245887Y45599D01*
X-245837Y45870D01*
X-245714Y46214D01*
X-245567Y46583D01*
X-245370Y47001D01*
X-245075Y47469D01*
X-242959D01*
X-243008Y47419D01*
X-243107Y47297D01*
X-243279Y47075D01*
X-243476Y46804D01*
X-243648Y46485D01*
X-243820Y46140D01*
X-243918Y45747D01*
X-243968Y45353D01*
Y45304D01*
X-243943Y45156D01*
X-243894Y44935D01*
X-243771Y44664D01*
X-243599Y44369D01*
X-243476Y44197D01*
X-243328Y44049D01*
X-243156Y43902D01*
X-242959Y43779D01*
X-242738Y43656D01*
X-242467Y43533D01*
X-242442D01*
X-242393Y43508D01*
X-242295Y43483D01*
X-242172Y43434D01*
X-242024Y43410D01*
X-241803Y43361D01*
X-241557Y43311D01*
X-241286Y43262D01*
X-240966Y43188D01*
X-240597Y43139D01*
X-240204Y43090D01*
X-239761Y43065D01*
X-239269Y43016D01*
X-238728Y42992D01*
X-238137Y42967D01*
X-237523D01*
X-237473D01*
X-237375D01*
X-237203D01*
X-236957D01*
X-236686Y42992D01*
X-236366D01*
X-235997Y43016D01*
X-235604Y43041D01*
X-234792Y43114D01*
X-233980Y43213D01*
X-233587Y43262D01*
X-233218Y43336D01*
X-232873Y43434D01*
X-232578Y43533D01*
X-232553D01*
X-232504Y43557D01*
X-232430Y43606D01*
X-232357Y43631D01*
X-232111Y43779D01*
X-231840Y43975D01*
X-231545Y44246D01*
X-231323Y44566D01*
X-231225Y44763D01*
X-231151Y44959D01*
X-231102Y45181D01*
X-231077Y45427D01*
Y45476D01*
X-231102Y45599D01*
X-231151Y45796D01*
X-231225Y46042D01*
X-231373Y46386D01*
X-231569Y46755D01*
X-231864Y47198D01*
X-232061Y47419D01*
X-232258Y47666D01*
X-230019D01*
Y47641D01*
D02*
G37*
G36*
X-229331Y33742D02*
X-245714D01*
Y35858D01*
X-231299D01*
Y39892D01*
X-229331D01*
Y33742D01*
D02*
G37*
G36*
X-228396Y30839D02*
X-228101Y30814D01*
X-227781Y30765D01*
X-227387Y30692D01*
X-226994Y30593D01*
X-226600Y30445D01*
X-226182Y30273D01*
X-225788Y30076D01*
X-225419Y29806D01*
X-225075Y29486D01*
X-224804Y29117D01*
X-224583Y28674D01*
X-224435Y28158D01*
X-224411Y27887D01*
X-224386Y27592D01*
Y27420D01*
X-224411Y27297D01*
X-224435Y27002D01*
X-224484Y26633D01*
X-226403Y26387D01*
Y26485D01*
X-226379Y26608D01*
Y26731D01*
X-226354Y27051D01*
Y27469D01*
X-226379Y27616D01*
X-226403Y27789D01*
X-226452Y27985D01*
X-226551Y28182D01*
X-226649Y28355D01*
X-226797Y28477D01*
X-226821Y28502D01*
X-226871Y28527D01*
X-226994Y28576D01*
X-227166Y28625D01*
X-227387Y28674D01*
X-227658Y28699D01*
X-228027Y28748D01*
X-228445D01*
X-245714D01*
Y30864D01*
X-228790D01*
X-228740D01*
X-228593D01*
X-228396Y30839D01*
D02*
G37*
G36*
X-230019Y26706D02*
X-229970Y26682D01*
X-229946Y26608D01*
X-229872Y26534D01*
X-229724Y26288D01*
X-229577Y25968D01*
X-229405Y25599D01*
X-229257Y25157D01*
X-229159Y24714D01*
X-229109Y24222D01*
Y24123D01*
X-229134Y24025D01*
Y23877D01*
X-229183Y23705D01*
X-229232Y23484D01*
X-229281Y23262D01*
X-229380Y23016D01*
X-229503Y22770D01*
X-229626Y22500D01*
X-229798Y22229D01*
X-230019Y21959D01*
X-230266Y21688D01*
X-230536Y21417D01*
X-230881Y21171D01*
X-231250Y20950D01*
X-231274D01*
X-231348Y20901D01*
X-231471Y20852D01*
X-231643Y20778D01*
X-231864Y20679D01*
X-232135Y20581D01*
X-232455Y20483D01*
X-232824Y20384D01*
X-233242Y20286D01*
X-233709Y20187D01*
X-234226Y20089D01*
X-234767Y19991D01*
X-235358Y19917D01*
X-235997Y19867D01*
X-236686Y19843D01*
X-237424Y19818D01*
X-237473D01*
X-237596D01*
X-237818D01*
X-238088Y19843D01*
X-238408D01*
X-238802Y19867D01*
X-239244Y19917D01*
X-239712Y19966D01*
X-240204Y20015D01*
X-240696Y20089D01*
X-241754Y20286D01*
X-242762Y20581D01*
X-243230Y20753D01*
X-243673Y20950D01*
X-243697Y20974D01*
X-243771Y20999D01*
X-243894Y21073D01*
X-244017Y21171D01*
X-244189Y21294D01*
X-244386Y21442D01*
X-244583Y21614D01*
X-244804Y21811D01*
X-245025Y22032D01*
X-245222Y22278D01*
X-245419Y22549D01*
X-245591Y22844D01*
X-245739Y23164D01*
X-245837Y23508D01*
X-245911Y23877D01*
X-245936Y24271D01*
Y24320D01*
X-245911Y24443D01*
X-245887Y24665D01*
X-245837Y24935D01*
X-245714Y25279D01*
X-245567Y25648D01*
X-245370Y26067D01*
X-245075Y26534D01*
X-242959D01*
X-243008Y26485D01*
X-243107Y26362D01*
X-243279Y26140D01*
X-243476Y25870D01*
X-243648Y25550D01*
X-243820Y25206D01*
X-243918Y24812D01*
X-243968Y24419D01*
Y24369D01*
X-243943Y24222D01*
X-243894Y24000D01*
X-243771Y23730D01*
X-243599Y23434D01*
X-243476Y23262D01*
X-243328Y23115D01*
X-243156Y22967D01*
X-242959Y22844D01*
X-242738Y22721D01*
X-242467Y22598D01*
X-242442D01*
X-242393Y22573D01*
X-242295Y22549D01*
X-242172Y22500D01*
X-242024Y22475D01*
X-241803Y22426D01*
X-241557Y22377D01*
X-241286Y22328D01*
X-240966Y22254D01*
X-240597Y22204D01*
X-240204Y22155D01*
X-239761Y22131D01*
X-239269Y22081D01*
X-238728Y22057D01*
X-238137Y22032D01*
X-237523D01*
X-237473D01*
X-237375D01*
X-237203D01*
X-236957D01*
X-236686Y22057D01*
X-236366D01*
X-235997Y22081D01*
X-235604Y22106D01*
X-234792Y22180D01*
X-233980Y22278D01*
X-233587Y22328D01*
X-233218Y22401D01*
X-232873Y22500D01*
X-232578Y22598D01*
X-232553D01*
X-232504Y22623D01*
X-232430Y22672D01*
X-232357Y22697D01*
X-232111Y22844D01*
X-231840Y23041D01*
X-231545Y23311D01*
X-231323Y23631D01*
X-231225Y23828D01*
X-231151Y24025D01*
X-231102Y24246D01*
X-231077Y24492D01*
Y24541D01*
X-231102Y24665D01*
X-231151Y24861D01*
X-231225Y25107D01*
X-231373Y25452D01*
X-231569Y25821D01*
X-231864Y26264D01*
X-232061Y26485D01*
X-232258Y26731D01*
X-230019D01*
Y26706D01*
D02*
G37*
G36*
X-229331Y12807D02*
X-245714D01*
Y14923D01*
X-231299D01*
Y18957D01*
X-229331D01*
Y12807D01*
D02*
G37*
G36*
X-228396Y9905D02*
X-228101Y9880D01*
X-227781Y9831D01*
X-227387Y9757D01*
X-226994Y9659D01*
X-226600Y9511D01*
X-226182Y9339D01*
X-225788Y9142D01*
X-225419Y8871D01*
X-225075Y8552D01*
X-224804Y8182D01*
X-224583Y7740D01*
X-224435Y7223D01*
X-224411Y6952D01*
X-224386Y6657D01*
Y6485D01*
X-224411Y6362D01*
X-224435Y6067D01*
X-224484Y5698D01*
X-226403Y5452D01*
Y5550D01*
X-226379Y5673D01*
Y5796D01*
X-226354Y6116D01*
Y6534D01*
X-226379Y6682D01*
X-226403Y6854D01*
X-226452Y7051D01*
X-226551Y7248D01*
X-226649Y7420D01*
X-226797Y7543D01*
X-226821Y7567D01*
X-226871Y7592D01*
X-226994Y7641D01*
X-227166Y7691D01*
X-227387Y7740D01*
X-227658Y7764D01*
X-228027Y7814D01*
X-228445D01*
X-245714D01*
Y9929D01*
X-228790D01*
X-228740D01*
X-228593D01*
X-228396Y9905D01*
D02*
G37*
G36*
X-230019Y5772D02*
X-229970Y5747D01*
X-229946Y5673D01*
X-229872Y5599D01*
X-229724Y5354D01*
X-229577Y5034D01*
X-229405Y4665D01*
X-229257Y4222D01*
X-229159Y3779D01*
X-229109Y3287D01*
Y3189D01*
X-229134Y3090D01*
Y2943D01*
X-229183Y2771D01*
X-229232Y2549D01*
X-229281Y2328D01*
X-229380Y2082D01*
X-229503Y1836D01*
X-229626Y1565D01*
X-229798Y1294D01*
X-230019Y1024D01*
X-230266Y753D01*
X-230536Y483D01*
X-230881Y237D01*
X-231250Y15D01*
X-231274D01*
X-231348Y-34D01*
X-231471Y-83D01*
X-231643Y-157D01*
X-231864Y-255D01*
X-232135Y-354D01*
X-232455Y-452D01*
X-232824Y-550D01*
X-233242Y-649D01*
X-233709Y-747D01*
X-234226Y-846D01*
X-234767Y-944D01*
X-235358Y-1018D01*
X-235997Y-1067D01*
X-236686Y-1092D01*
X-237424Y-1116D01*
X-237473D01*
X-237596D01*
X-237818D01*
X-238088Y-1092D01*
X-238408D01*
X-238802Y-1067D01*
X-239244Y-1018D01*
X-239712Y-969D01*
X-240204Y-920D01*
X-240696Y-846D01*
X-241754Y-649D01*
X-242762Y-354D01*
X-243230Y-182D01*
X-243673Y15D01*
X-243697Y40D01*
X-243771Y64D01*
X-243894Y138D01*
X-244017Y237D01*
X-244189Y360D01*
X-244386Y507D01*
X-244583Y680D01*
X-244804Y876D01*
X-245025Y1098D01*
X-245222Y1344D01*
X-245419Y1614D01*
X-245591Y1910D01*
X-245739Y2229D01*
X-245837Y2574D01*
X-245911Y2943D01*
X-245936Y3336D01*
Y3385D01*
X-245911Y3509D01*
X-245887Y3730D01*
X-245837Y4000D01*
X-245714Y4345D01*
X-245567Y4714D01*
X-245370Y5132D01*
X-245075Y5599D01*
X-242959D01*
X-243008Y5550D01*
X-243107Y5427D01*
X-243279Y5206D01*
X-243476Y4935D01*
X-243648Y4615D01*
X-243820Y4271D01*
X-243918Y3878D01*
X-243968Y3484D01*
Y3435D01*
X-243943Y3287D01*
X-243894Y3066D01*
X-243771Y2795D01*
X-243599Y2500D01*
X-243476Y2328D01*
X-243328Y2180D01*
X-243156Y2033D01*
X-242959Y1910D01*
X-242738Y1786D01*
X-242467Y1664D01*
X-242442D01*
X-242393Y1639D01*
X-242295Y1614D01*
X-242172Y1565D01*
X-242024Y1540D01*
X-241803Y1491D01*
X-241557Y1442D01*
X-241286Y1393D01*
X-240966Y1319D01*
X-240597Y1270D01*
X-240204Y1221D01*
X-239761Y1196D01*
X-239269Y1147D01*
X-238728Y1122D01*
X-238137Y1098D01*
X-237523D01*
X-237473D01*
X-237375D01*
X-237203D01*
X-236957D01*
X-236686Y1122D01*
X-236366D01*
X-235997Y1147D01*
X-235604Y1172D01*
X-234792Y1245D01*
X-233980Y1344D01*
X-233587Y1393D01*
X-233218Y1467D01*
X-232873Y1565D01*
X-232578Y1664D01*
X-232553D01*
X-232504Y1688D01*
X-232430Y1737D01*
X-232357Y1762D01*
X-232111Y1910D01*
X-231840Y2106D01*
X-231545Y2377D01*
X-231323Y2697D01*
X-231225Y2894D01*
X-231151Y3090D01*
X-231102Y3312D01*
X-231077Y3558D01*
Y3607D01*
X-231102Y3730D01*
X-231151Y3927D01*
X-231225Y4173D01*
X-231373Y4517D01*
X-231569Y4886D01*
X-231864Y5329D01*
X-232061Y5550D01*
X-232258Y5796D01*
X-230019D01*
Y5772D01*
D02*
G37*
G36*
X-229331Y-8127D02*
X-245714D01*
Y-6012D01*
X-231299D01*
Y-1977D01*
X-229331D01*
Y-8127D01*
D02*
G37*
G36*
X-228396Y-11030D02*
X-228101Y-11055D01*
X-227781Y-11104D01*
X-227387Y-11178D01*
X-226994Y-11276D01*
X-226600Y-11424D01*
X-226182Y-11596D01*
X-225788Y-11793D01*
X-225419Y-12063D01*
X-225075Y-12383D01*
X-224804Y-12752D01*
X-224583Y-13195D01*
X-224435Y-13711D01*
X-224411Y-13982D01*
X-224386Y-14277D01*
Y-14450D01*
X-224411Y-14572D01*
X-224435Y-14868D01*
X-224484Y-15237D01*
X-226403Y-15483D01*
Y-15384D01*
X-226379Y-15261D01*
Y-15138D01*
X-226354Y-14819D01*
Y-14400D01*
X-226379Y-14253D01*
X-226403Y-14081D01*
X-226452Y-13884D01*
X-226551Y-13687D01*
X-226649Y-13515D01*
X-226797Y-13392D01*
X-226821Y-13367D01*
X-226871Y-13342D01*
X-226994Y-13293D01*
X-227166Y-13244D01*
X-227387Y-13195D01*
X-227658Y-13170D01*
X-228027Y-13121D01*
X-228445D01*
X-245714D01*
Y-11005D01*
X-228790D01*
X-228740D01*
X-228593D01*
X-228396Y-11030D01*
D02*
G37*
G36*
X-230019Y-15163D02*
X-229970Y-15188D01*
X-229946Y-15261D01*
X-229872Y-15335D01*
X-229724Y-15581D01*
X-229577Y-15901D01*
X-229405Y-16270D01*
X-229257Y-16713D01*
X-229159Y-17155D01*
X-229109Y-17648D01*
Y-17746D01*
X-229134Y-17844D01*
Y-17992D01*
X-229183Y-18164D01*
X-229232Y-18386D01*
X-229281Y-18607D01*
X-229380Y-18853D01*
X-229503Y-19099D01*
X-229626Y-19369D01*
X-229798Y-19640D01*
X-230019Y-19911D01*
X-230266Y-20181D01*
X-230536Y-20452D01*
X-230881Y-20698D01*
X-231250Y-20919D01*
X-231274D01*
X-231348Y-20968D01*
X-231471Y-21018D01*
X-231643Y-21091D01*
X-231864Y-21190D01*
X-232135Y-21288D01*
X-232455Y-21387D01*
X-232824Y-21485D01*
X-233242Y-21584D01*
X-233709Y-21682D01*
X-234226Y-21780D01*
X-234767Y-21879D01*
X-235358Y-21953D01*
X-235997Y-22002D01*
X-236686Y-22026D01*
X-237424Y-22051D01*
X-237473D01*
X-237596D01*
X-237818D01*
X-238088Y-22026D01*
X-238408D01*
X-238802Y-22002D01*
X-239244Y-21953D01*
X-239712Y-21903D01*
X-240204Y-21854D01*
X-240696Y-21780D01*
X-241754Y-21584D01*
X-242762Y-21288D01*
X-243230Y-21116D01*
X-243673Y-20919D01*
X-243697Y-20895D01*
X-243771Y-20870D01*
X-243894Y-20796D01*
X-244017Y-20698D01*
X-244189Y-20575D01*
X-244386Y-20427D01*
X-244583Y-20255D01*
X-244804Y-20058D01*
X-245025Y-19837D01*
X-245222Y-19591D01*
X-245419Y-19320D01*
X-245591Y-19025D01*
X-245739Y-18705D01*
X-245837Y-18361D01*
X-245911Y-17992D01*
X-245936Y-17598D01*
Y-17549D01*
X-245911Y-17426D01*
X-245887Y-17205D01*
X-245837Y-16934D01*
X-245714Y-16590D01*
X-245567Y-16221D01*
X-245370Y-15803D01*
X-245075Y-15335D01*
X-242959D01*
X-243008Y-15384D01*
X-243107Y-15507D01*
X-243279Y-15729D01*
X-243476Y-15999D01*
X-243648Y-16319D01*
X-243820Y-16663D01*
X-243918Y-17057D01*
X-243968Y-17451D01*
Y-17500D01*
X-243943Y-17648D01*
X-243894Y-17869D01*
X-243771Y-18140D01*
X-243599Y-18435D01*
X-243476Y-18607D01*
X-243328Y-18755D01*
X-243156Y-18902D01*
X-242959Y-19025D01*
X-242738Y-19148D01*
X-242467Y-19271D01*
X-242442D01*
X-242393Y-19296D01*
X-242295Y-19320D01*
X-242172Y-19369D01*
X-242024Y-19394D01*
X-241803Y-19443D01*
X-241557Y-19492D01*
X-241286Y-19542D01*
X-240966Y-19616D01*
X-240597Y-19665D01*
X-240204Y-19714D01*
X-239761Y-19738D01*
X-239269Y-19788D01*
X-238728Y-19812D01*
X-238137Y-19837D01*
X-237523D01*
X-237473D01*
X-237375D01*
X-237203D01*
X-236957D01*
X-236686Y-19812D01*
X-236366D01*
X-235997Y-19788D01*
X-235604Y-19763D01*
X-234792Y-19689D01*
X-233980Y-19591D01*
X-233587Y-19542D01*
X-233218Y-19468D01*
X-232873Y-19369D01*
X-232578Y-19271D01*
X-232553D01*
X-232504Y-19247D01*
X-232430Y-19197D01*
X-232357Y-19173D01*
X-232111Y-19025D01*
X-231840Y-18828D01*
X-231545Y-18558D01*
X-231323Y-18238D01*
X-231225Y-18041D01*
X-231151Y-17844D01*
X-231102Y-17623D01*
X-231077Y-17377D01*
Y-17328D01*
X-231102Y-17205D01*
X-231151Y-17008D01*
X-231225Y-16762D01*
X-231373Y-16418D01*
X-231569Y-16049D01*
X-231864Y-15606D01*
X-232061Y-15384D01*
X-232258Y-15138D01*
X-230019D01*
Y-15163D01*
D02*
G37*
G36*
X-229331Y-29062D02*
X-245714D01*
Y-26946D01*
X-231299D01*
Y-22912D01*
X-229331D01*
Y-29062D01*
D02*
G37*
G36*
X-228396Y-31965D02*
X-228101Y-31989D01*
X-227781Y-32038D01*
X-227387Y-32112D01*
X-226994Y-32211D01*
X-226600Y-32358D01*
X-226182Y-32531D01*
X-225788Y-32727D01*
X-225419Y-32998D01*
X-225075Y-33318D01*
X-224804Y-33687D01*
X-224583Y-34130D01*
X-224435Y-34646D01*
X-224411Y-34917D01*
X-224386Y-35212D01*
Y-35384D01*
X-224411Y-35507D01*
X-224435Y-35802D01*
X-224484Y-36171D01*
X-226403Y-36417D01*
Y-36319D01*
X-226379Y-36196D01*
Y-36073D01*
X-226354Y-35753D01*
Y-35335D01*
X-226379Y-35187D01*
X-226403Y-35015D01*
X-226452Y-34818D01*
X-226551Y-34621D01*
X-226649Y-34449D01*
X-226797Y-34326D01*
X-226821Y-34302D01*
X-226871Y-34277D01*
X-226994Y-34228D01*
X-227166Y-34179D01*
X-227387Y-34130D01*
X-227658Y-34105D01*
X-228027Y-34056D01*
X-228445D01*
X-245714D01*
Y-31940D01*
X-228790D01*
X-228740D01*
X-228593D01*
X-228396Y-31965D01*
D02*
G37*
%LPC*%
G36*
X321344Y304060D02*
Y296516D01*
X321409Y296320D01*
X321540Y296057D01*
X321868Y295467D01*
X322131Y295139D01*
X322262Y294942D01*
X322393Y294745D01*
X322459Y294680D01*
X322852Y294220D01*
X323312Y293827D01*
X323705Y293564D01*
X324099Y293433D01*
X324427Y293302D01*
X324689Y293236D01*
X324952D01*
X325345Y293302D01*
X325739Y293368D01*
X326264Y293696D01*
X326657Y293958D01*
X326723Y294024D01*
X326788Y294089D01*
X327182Y294876D01*
X327379Y295598D01*
Y295926D01*
X327444Y296188D01*
Y296385D01*
Y296451D01*
X327379Y297172D01*
X327182Y297894D01*
X326854Y298616D01*
X326460Y299272D01*
X326001Y299993D01*
X325542Y300584D01*
X324361Y301764D01*
X323246Y302683D01*
X322787Y303076D01*
X322262Y303404D01*
X321934Y303667D01*
X321606Y303929D01*
X321409Y303995D01*
X321344Y304060D01*
D02*
G37*
G36*
X345156Y314556D02*
X345025D01*
X344500Y314491D01*
X344041Y314228D01*
X343647Y313835D01*
X343254Y313310D01*
X342991Y312654D01*
X342729Y311998D01*
X342401Y310489D01*
X342139Y308980D01*
X342073Y308324D01*
Y307668D01*
X342007Y307144D01*
Y306750D01*
Y306488D01*
Y306422D01*
X347715D01*
Y307865D01*
X347584Y309112D01*
X347452Y310227D01*
X347321Y311145D01*
X347059Y311932D01*
X346862Y312588D01*
X346599Y313113D01*
X346337Y313572D01*
X346140Y313900D01*
X345878Y314097D01*
X345615Y314294D01*
X345419Y314425D01*
X345156Y314556D01*
D02*
G37*
G36*
X143567D02*
X143436D01*
X142911Y314491D01*
X142452Y314228D01*
X142059Y313835D01*
X141665Y313310D01*
X141403Y312654D01*
X141140Y311998D01*
X140812Y310489D01*
X140550Y308980D01*
X140484Y308324D01*
Y307668D01*
X140419Y307144D01*
Y306750D01*
Y306488D01*
Y306422D01*
X146126D01*
Y307865D01*
X145995Y309112D01*
X145863Y310227D01*
X145732Y311145D01*
X145470Y311932D01*
X145273Y312588D01*
X145011Y313113D01*
X144748Y313572D01*
X144552Y313900D01*
X144289Y314097D01*
X144027Y314294D01*
X143830Y314425D01*
X143567Y314556D01*
D02*
G37*
G36*
X386091Y327676D02*
X384713Y327611D01*
X383532Y327414D01*
X382483Y327152D01*
X381564Y326692D01*
X380843Y326233D01*
X380187Y325643D01*
X379662Y325052D01*
X379268Y324462D01*
X378940Y323806D01*
X378678Y323216D01*
X378547Y322691D01*
X378416Y322166D01*
X378350Y321707D01*
X378284Y321379D01*
Y321182D01*
Y321116D01*
X378350Y319804D01*
X378547Y318624D01*
X378940Y317640D01*
X379334Y316787D01*
X379859Y316065D01*
X380449Y315475D01*
X381039Y314950D01*
X381695Y314556D01*
X382351Y314294D01*
X382942Y314032D01*
X383532Y313900D01*
X384057Y313769D01*
X384451Y313704D01*
X384779Y313638D01*
X386091D01*
Y327676D01*
D02*
G37*
G36*
X205691Y314228D02*
X205560D01*
X204838Y314097D01*
X204248Y313769D01*
X203723Y313244D01*
X203263Y312588D01*
X202870Y311801D01*
X202607Y310883D01*
X202083Y308980D01*
X201820Y307012D01*
X201755Y306094D01*
X201689Y305307D01*
X201624Y304651D01*
Y304126D01*
Y303798D01*
Y303667D01*
X201689Y301830D01*
X201755Y300256D01*
X201952Y298812D01*
X202214Y297632D01*
X202476Y296648D01*
X202804Y295795D01*
X203198Y295073D01*
X203526Y294548D01*
X203854Y294089D01*
X204248Y293761D01*
X204576Y293564D01*
X204838Y293433D01*
X205100Y293302D01*
X205232Y293236D01*
X205428D01*
X206084Y293368D01*
X206675Y293696D01*
X207200Y294220D01*
X207659Y294876D01*
X208052Y295664D01*
X208380Y296516D01*
X208839Y298484D01*
X209102Y300387D01*
X209167Y301240D01*
X209233Y302027D01*
X209299Y302683D01*
Y303208D01*
Y303536D01*
Y303667D01*
X209233Y305504D01*
X209167Y307144D01*
X208971Y308587D01*
X208708Y309768D01*
X208446Y310817D01*
X208118Y311670D01*
X207790Y312326D01*
X207396Y312916D01*
X207068Y313376D01*
X206740Y313704D01*
X206412Y313900D01*
X206150Y314097D01*
X205887Y314163D01*
X205691Y314228D01*
D02*
G37*
G36*
X266830Y313900D02*
X266633D01*
X265846Y313769D01*
X265124Y313441D01*
X264534Y312916D01*
X264009Y312260D01*
X263550Y311473D01*
X263222Y310555D01*
X262894Y309636D01*
X262697Y308652D01*
X262369Y306684D01*
X262238Y305766D01*
X262172Y304979D01*
X262107Y304323D01*
Y303798D01*
Y303470D01*
Y303339D01*
X262172Y301568D01*
X262303Y299993D01*
X262500Y298681D01*
X262763Y297500D01*
X263025Y296516D01*
X263419Y295729D01*
X263747Y295008D01*
X264140Y294483D01*
X264534Y294089D01*
X264862Y293761D01*
X265255Y293564D01*
X265518Y293368D01*
X265780Y293302D01*
X265977Y293236D01*
X266174D01*
X266830Y293368D01*
X267486Y293630D01*
X268076Y294089D01*
X268601Y294548D01*
X268995Y295008D01*
X269323Y295467D01*
X269585Y295729D01*
X269651Y295860D01*
Y311276D01*
X269585Y311473D01*
X269519Y311670D01*
X269192Y312195D01*
X268929Y312588D01*
X268863Y312720D01*
X268798Y312785D01*
X268470Y313179D01*
X268076Y313441D01*
X267683Y313638D01*
X267355Y313769D01*
X267092Y313835D01*
X266830Y313900D01*
D02*
G37*
G36*
X340859Y266970D02*
X340810D01*
X340564Y266921D01*
X340318Y266872D01*
X339875Y266527D01*
X339482Y266085D01*
X339186Y265593D01*
X338990Y265101D01*
X338793Y264658D01*
X338744Y264313D01*
X338694Y264264D01*
Y264215D01*
X338596Y263625D01*
X338448Y262985D01*
X338350Y262247D01*
X338301Y261460D01*
X338153Y259738D01*
X338104Y258016D01*
X338055Y257179D01*
Y256441D01*
X338006Y255703D01*
Y255113D01*
Y254621D01*
Y254227D01*
Y253981D01*
Y253883D01*
Y252702D01*
X338055Y251620D01*
Y250587D01*
X338104Y249603D01*
X338202Y248717D01*
X338252Y247881D01*
X338350Y247093D01*
X338448Y246405D01*
X338547Y245765D01*
X338645Y245125D01*
X338793Y244584D01*
X338891Y244092D01*
X339137Y243256D01*
X339383Y242567D01*
X339678Y242026D01*
X339924Y241632D01*
X340170Y241337D01*
X340367Y241140D01*
X340564Y241042D01*
X340712Y240993D01*
X340761Y240943D01*
X340810D01*
X341056Y240993D01*
X341302Y241091D01*
X341499Y241288D01*
X341696Y241485D01*
X341892Y241780D01*
X342089Y242124D01*
X342384Y242961D01*
X342680Y243945D01*
X342876Y245027D01*
X343073Y246208D01*
X343221Y247438D01*
X343319Y248619D01*
X343418Y249799D01*
X343467Y250882D01*
X343516Y251866D01*
X343565Y252702D01*
Y253047D01*
Y253342D01*
Y253588D01*
Y253735D01*
Y253834D01*
Y253883D01*
Y255359D01*
X343516Y256737D01*
Y257917D01*
X343467Y259049D01*
X343418Y260033D01*
X343368Y260919D01*
X343270Y261657D01*
X343221Y262345D01*
X343172Y262887D01*
X343073Y263379D01*
X343024Y263772D01*
X342975Y264067D01*
X342926Y264264D01*
Y264461D01*
X342876Y264510D01*
Y264559D01*
X342729Y265002D01*
X342581Y265347D01*
X342434Y265691D01*
X342237Y265937D01*
X341942Y266380D01*
X341597Y266675D01*
X341302Y266823D01*
X341056Y266921D01*
X340859Y266970D01*
D02*
G37*
G36*
X234390Y213480D02*
X234292D01*
X233849Y213431D01*
X233456Y213234D01*
X233111Y212988D01*
X232816Y212594D01*
X232570Y212201D01*
X232373Y211709D01*
X232029Y210676D01*
X231881Y209642D01*
X231832Y209150D01*
X231783Y208757D01*
X231734Y208412D01*
Y208117D01*
Y207920D01*
Y207871D01*
X231783Y206641D01*
X231832Y205559D01*
X231980Y204673D01*
X232127Y203886D01*
X232324Y203197D01*
X232521Y202607D01*
X232767Y202164D01*
X232964Y201820D01*
X233210Y201524D01*
X233456Y201278D01*
X233652Y201131D01*
X233849Y201032D01*
X234144Y200934D01*
X234243D01*
X234686Y200983D01*
X235030Y201180D01*
X235374Y201524D01*
X235670Y201918D01*
X235916Y202361D01*
X236112Y202902D01*
X236408Y204083D01*
X236555Y205214D01*
X236604Y205756D01*
X236654Y206198D01*
X236703Y206592D01*
Y206936D01*
Y207133D01*
Y207182D01*
X236654Y208314D01*
X236604Y209249D01*
X236457Y210085D01*
X236309Y210823D01*
X236162Y211414D01*
X235916Y211955D01*
X235719Y212348D01*
X235473Y212693D01*
X235276Y212939D01*
X235030Y213136D01*
X234833Y213283D01*
X234686Y213382D01*
X234390Y213480D01*
D02*
G37*
G36*
X365656Y226715D02*
X365607D01*
X365361Y226666D01*
X365115Y226616D01*
X364672Y226272D01*
X364278Y225829D01*
X363983Y225337D01*
X363786Y224845D01*
X363590Y224402D01*
X363540Y224058D01*
X363491Y224009D01*
Y223960D01*
X363393Y223369D01*
X363245Y222730D01*
X363147Y221992D01*
X363098Y221204D01*
X362950Y219482D01*
X362901Y217760D01*
X362852Y216924D01*
Y216186D01*
X362802Y215448D01*
Y214858D01*
Y214366D01*
Y213972D01*
Y213726D01*
Y213628D01*
Y212447D01*
X362852Y211364D01*
Y210331D01*
X362901Y209347D01*
X362999Y208462D01*
X363048Y207625D01*
X363147Y206838D01*
X363245Y206149D01*
X363344Y205510D01*
X363442Y204870D01*
X363590Y204329D01*
X363688Y203837D01*
X363934Y203000D01*
X364180Y202312D01*
X364475Y201770D01*
X364721Y201377D01*
X364967Y201082D01*
X365164Y200885D01*
X365361Y200786D01*
X365508Y200737D01*
X365558Y200688D01*
X365607D01*
X365853Y200737D01*
X366099Y200836D01*
X366296Y201032D01*
X366492Y201229D01*
X366689Y201524D01*
X366886Y201869D01*
X367181Y202705D01*
X367476Y203689D01*
X367673Y204772D01*
X367870Y205952D01*
X368018Y207182D01*
X368116Y208363D01*
X368214Y209544D01*
X368264Y210626D01*
X368313Y211610D01*
X368362Y212447D01*
Y212791D01*
Y213086D01*
Y213332D01*
Y213480D01*
Y213578D01*
Y213628D01*
Y215104D01*
X368313Y216481D01*
Y217662D01*
X368264Y218794D01*
X368214Y219778D01*
X368165Y220663D01*
X368067Y221401D01*
X368018Y222090D01*
X367968Y222631D01*
X367870Y223123D01*
X367821Y223517D01*
X367772Y223812D01*
X367722Y224009D01*
Y224206D01*
X367673Y224255D01*
Y224304D01*
X367526Y224747D01*
X367378Y225091D01*
X367230Y225436D01*
X367034Y225682D01*
X366738Y226124D01*
X366394Y226420D01*
X366099Y226567D01*
X365853Y226666D01*
X365656Y226715D01*
D02*
G37*
G36*
X300122D02*
X300072D01*
X299826Y226666D01*
X299580Y226616D01*
X299138Y226272D01*
X298744Y225829D01*
X298449Y225337D01*
X298252Y224845D01*
X298055Y224402D01*
X298006Y224058D01*
X297957Y224009D01*
Y223960D01*
X297858Y223369D01*
X297711Y222730D01*
X297612Y221992D01*
X297563Y221204D01*
X297416Y219482D01*
X297366Y217760D01*
X297317Y216924D01*
Y216186D01*
X297268Y215448D01*
Y214858D01*
Y214366D01*
Y213972D01*
Y213726D01*
Y213628D01*
Y212447D01*
X297317Y211364D01*
Y210331D01*
X297366Y209347D01*
X297465Y208462D01*
X297514Y207625D01*
X297612Y206838D01*
X297711Y206149D01*
X297809Y205510D01*
X297908Y204870D01*
X298055Y204329D01*
X298154Y203837D01*
X298400Y203000D01*
X298646Y202312D01*
X298941Y201770D01*
X299187Y201377D01*
X299433Y201082D01*
X299630Y200885D01*
X299826Y200786D01*
X299974Y200737D01*
X300023Y200688D01*
X300072D01*
X300318Y200737D01*
X300564Y200836D01*
X300761Y201032D01*
X300958Y201229D01*
X301155Y201524D01*
X301352Y201869D01*
X301647Y202705D01*
X301942Y203689D01*
X302139Y204772D01*
X302336Y205952D01*
X302483Y207182D01*
X302582Y208363D01*
X302680Y209544D01*
X302729Y210626D01*
X302778Y211610D01*
X302828Y212447D01*
Y212791D01*
Y213086D01*
Y213332D01*
Y213480D01*
Y213578D01*
Y213628D01*
Y215104D01*
X302778Y216481D01*
Y217662D01*
X302729Y218794D01*
X302680Y219778D01*
X302631Y220663D01*
X302532Y221401D01*
X302483Y222090D01*
X302434Y222631D01*
X302336Y223123D01*
X302286Y223517D01*
X302237Y223812D01*
X302188Y224009D01*
Y224206D01*
X302139Y224255D01*
Y224304D01*
X301991Y224747D01*
X301844Y225091D01*
X301696Y225436D01*
X301499Y225682D01*
X301204Y226124D01*
X300860Y226420D01*
X300564Y226567D01*
X300318Y226666D01*
X300122Y226715D01*
D02*
G37*
G36*
X252496D02*
X252447D01*
X252201Y226666D01*
X251955Y226616D01*
X251512Y226272D01*
X251118Y225829D01*
X250823Y225337D01*
X250626Y224845D01*
X250430Y224402D01*
X250380Y224058D01*
X250331Y224009D01*
Y223960D01*
X250233Y223369D01*
X250085Y222730D01*
X249987Y221992D01*
X249938Y221204D01*
X249790Y219482D01*
X249741Y217760D01*
X249692Y216924D01*
Y216186D01*
X249642Y215448D01*
Y214858D01*
Y214366D01*
Y213972D01*
Y213726D01*
Y213628D01*
Y212447D01*
X249692Y211364D01*
Y210331D01*
X249741Y209347D01*
X249839Y208462D01*
X249888Y207625D01*
X249987Y206838D01*
X250085Y206149D01*
X250184Y205510D01*
X250282Y204870D01*
X250430Y204329D01*
X250528Y203837D01*
X250774Y203000D01*
X251020Y202312D01*
X251315Y201770D01*
X251561Y201377D01*
X251807Y201082D01*
X252004Y200885D01*
X252201Y200786D01*
X252348Y200737D01*
X252398Y200688D01*
X252447D01*
X252693Y200737D01*
X252939Y200836D01*
X253136Y201032D01*
X253332Y201229D01*
X253529Y201524D01*
X253726Y201869D01*
X254021Y202705D01*
X254316Y203689D01*
X254513Y204772D01*
X254710Y205952D01*
X254858Y207182D01*
X254956Y208363D01*
X255054Y209544D01*
X255104Y210626D01*
X255153Y211610D01*
X255202Y212447D01*
Y212791D01*
Y213086D01*
Y213332D01*
Y213480D01*
Y213578D01*
Y213628D01*
Y215104D01*
X255153Y216481D01*
Y217662D01*
X255104Y218794D01*
X255054Y219778D01*
X255005Y220663D01*
X254907Y221401D01*
X254858Y222090D01*
X254808Y222631D01*
X254710Y223123D01*
X254661Y223517D01*
X254612Y223812D01*
X254562Y224009D01*
Y224206D01*
X254513Y224255D01*
Y224304D01*
X254366Y224747D01*
X254218Y225091D01*
X254070Y225436D01*
X253874Y225682D01*
X253578Y226124D01*
X253234Y226420D01*
X252939Y226567D01*
X252693Y226666D01*
X252496Y226715D01*
D02*
G37*
G36*
X-312981Y324847D02*
X-321443D01*
X-321935Y324781D01*
X-322362Y324748D01*
X-322755Y324650D01*
X-323149Y324584D01*
X-323477Y324486D01*
X-323772Y324355D01*
X-324035Y324256D01*
X-324494Y324027D01*
X-324789Y323863D01*
X-324986Y323732D01*
X-325051Y323666D01*
X-325478Y323207D01*
X-325806Y322715D01*
X-326035Y322223D01*
X-326199Y321764D01*
X-326298Y321337D01*
X-326331Y321009D01*
X-326363Y320878D01*
Y320780D01*
Y320747D01*
Y320714D01*
X-326331Y320255D01*
X-326265Y319861D01*
X-326134Y319468D01*
X-326035Y319140D01*
X-325904Y318844D01*
X-325773Y318648D01*
X-325707Y318484D01*
X-325675Y318451D01*
X-325412Y318090D01*
X-325084Y317762D01*
X-324756Y317500D01*
X-324461Y317303D01*
X-324166Y317139D01*
X-323936Y317040D01*
X-323772Y316975D01*
X-323707Y316942D01*
X-323182Y316778D01*
X-322624Y316680D01*
X-322001Y316581D01*
X-321443Y316548D01*
X-320919Y316516D01*
X-320689Y316483D01*
X-312981D01*
Y324847D01*
D02*
G37*
G36*
X-338270Y324650D02*
X-344239D01*
X-344666Y324617D01*
X-345027Y324584D01*
X-345387Y324552D01*
X-345715D01*
X-345978Y324519D01*
X-346240Y324486D01*
X-346634Y324420D01*
X-346896Y324355D01*
X-347060Y324322D01*
X-347126Y324289D01*
X-347519Y324125D01*
X-347880Y323928D01*
X-348143Y323732D01*
X-348405Y323502D01*
X-348602Y323305D01*
X-348733Y323141D01*
X-348799Y323010D01*
X-348831Y322977D01*
X-349028Y322616D01*
X-349192Y322223D01*
X-349291Y321862D01*
X-349389Y321534D01*
X-349422Y321239D01*
X-349455Y320976D01*
Y320845D01*
Y320780D01*
X-349422Y320288D01*
X-349356Y319861D01*
X-349258Y319468D01*
X-349127Y319172D01*
X-348995Y318910D01*
X-348897Y318713D01*
X-348831Y318582D01*
X-348799Y318549D01*
X-348536Y318254D01*
X-348208Y317992D01*
X-347913Y317795D01*
X-347585Y317598D01*
X-347290Y317467D01*
X-347060Y317368D01*
X-346929Y317336D01*
X-346863Y317303D01*
X-346470Y317204D01*
X-345978Y317139D01*
X-345453Y317106D01*
X-344928Y317073D01*
X-344469Y317040D01*
X-338270D01*
Y324650D01*
D02*
G37*
G36*
Y314056D02*
X-344075D01*
X-344928Y314023D01*
X-345650Y313990D01*
X-346306Y313924D01*
X-346798Y313859D01*
X-347224Y313760D01*
X-347519Y313695D01*
X-347683Y313662D01*
X-347749Y313629D01*
X-348208Y313432D01*
X-348602Y313236D01*
X-348930Y312973D01*
X-349225Y312744D01*
X-349455Y312514D01*
X-349619Y312317D01*
X-349717Y312186D01*
X-349750Y312153D01*
X-350012Y311760D01*
X-350176Y311333D01*
X-350307Y310940D01*
X-350406Y310546D01*
X-350471Y310218D01*
X-350504Y309956D01*
Y309792D01*
Y309726D01*
X-350471Y309300D01*
X-350439Y308873D01*
X-350340Y308512D01*
X-350242Y308217D01*
X-350143Y307955D01*
X-350078Y307758D01*
X-350012Y307627D01*
X-349979Y307594D01*
X-349783Y307266D01*
X-349586Y307004D01*
X-349356Y306741D01*
X-349159Y306544D01*
X-348963Y306380D01*
X-348831Y306282D01*
X-348733Y306216D01*
X-348700Y306184D01*
X-348405Y306020D01*
X-348077Y305856D01*
X-347782Y305757D01*
X-347454Y305659D01*
X-347191Y305593D01*
X-346995Y305528D01*
X-346863Y305495D01*
X-346798D01*
X-346503Y305462D01*
X-346175Y305429D01*
X-345420Y305396D01*
X-338270D01*
Y314056D01*
D02*
G37*
G36*
X-223568Y288249D02*
X-223765D01*
X-224191Y288216D01*
X-224618Y288183D01*
X-225372Y287953D01*
X-226028Y287691D01*
X-226586Y287363D01*
X-227012Y287002D01*
X-227340Y286740D01*
X-227439Y286609D01*
X-227537Y286510D01*
X-227603Y286477D01*
Y286445D01*
X-227931Y285985D01*
X-228193Y285428D01*
X-228390Y284870D01*
X-228554Y284313D01*
X-228652Y283821D01*
X-228718Y283591D01*
Y283394D01*
X-228751Y283263D01*
X-228783Y283132D01*
Y283066D01*
Y283033D01*
X-218583D01*
X-218681Y283886D01*
X-218878Y284608D01*
X-219140Y285264D01*
X-219435Y285821D01*
X-219698Y286248D01*
X-219927Y286543D01*
X-220091Y286740D01*
X-220157Y286805D01*
X-220452Y287068D01*
X-220747Y287297D01*
X-221338Y287625D01*
X-221961Y287888D01*
X-222519Y288085D01*
X-223011Y288183D01*
X-223240Y288216D01*
X-223404D01*
X-223568Y288249D01*
D02*
G37*
G36*
X-323411D02*
X-323608D01*
X-324035Y288216D01*
X-324461Y288183D01*
X-325215Y287953D01*
X-325871Y287691D01*
X-326429Y287363D01*
X-326855Y287002D01*
X-327183Y286740D01*
X-327282Y286609D01*
X-327380Y286510D01*
X-327446Y286477D01*
Y286445D01*
X-327774Y285985D01*
X-328036Y285428D01*
X-328233Y284870D01*
X-328397Y284313D01*
X-328495Y283821D01*
X-328561Y283591D01*
Y283394D01*
X-328594Y283263D01*
X-328627Y283132D01*
Y283066D01*
Y283033D01*
X-318426D01*
X-318524Y283886D01*
X-318721Y284608D01*
X-318983Y285264D01*
X-319279Y285821D01*
X-319541Y286248D01*
X-319771Y286543D01*
X-319935Y286740D01*
X-320000Y286805D01*
X-320295Y287068D01*
X-320591Y287297D01*
X-321181Y287625D01*
X-321804Y287888D01*
X-322362Y288085D01*
X-322854Y288183D01*
X-323083Y288216D01*
X-323247D01*
X-323411Y288249D01*
D02*
G37*
G36*
X-126054Y294382D02*
X-133270D01*
X-133926Y294349D01*
X-134451Y294317D01*
X-134877Y294284D01*
X-135172Y294218D01*
X-135402Y294185D01*
X-135533Y294153D01*
X-135566D01*
X-136025Y293989D01*
X-136451Y293759D01*
X-136812Y293529D01*
X-137107Y293267D01*
X-137337Y293037D01*
X-137534Y292841D01*
X-137632Y292709D01*
X-137665Y292644D01*
X-137927Y292217D01*
X-138124Y291758D01*
X-138288Y291299D01*
X-138387Y290873D01*
X-138452Y290512D01*
X-138485Y290217D01*
Y290020D01*
Y289987D01*
Y289954D01*
X-138419Y289167D01*
X-138255Y288511D01*
X-138059Y287921D01*
X-137796Y287429D01*
X-137534Y287035D01*
X-137337Y286773D01*
X-137173Y286609D01*
X-137107Y286543D01*
X-136845Y286346D01*
X-136517Y286149D01*
X-135828Y285854D01*
X-135074Y285657D01*
X-134319Y285526D01*
X-133631Y285428D01*
X-133335Y285395D01*
X-133073D01*
X-132843Y285362D01*
X-126054D01*
Y294382D01*
D02*
G37*
G36*
X-183782Y288249D02*
X-183979D01*
X-184372Y288216D01*
X-184733Y288183D01*
X-185422Y287986D01*
X-186045Y287691D01*
X-186570Y287363D01*
X-186996Y287035D01*
X-187291Y286740D01*
X-187488Y286543D01*
X-187554Y286510D01*
Y286477D01*
X-187816Y286117D01*
X-188046Y285756D01*
X-188407Y284903D01*
X-188669Y283985D01*
X-188833Y283099D01*
X-188899Y282673D01*
X-188964Y282279D01*
X-188997Y281918D01*
Y281623D01*
X-189030Y281361D01*
Y281164D01*
Y281033D01*
Y281000D01*
Y280377D01*
X-188964Y279819D01*
X-188899Y279261D01*
X-188800Y278769D01*
X-188702Y278310D01*
X-188571Y277917D01*
X-188439Y277523D01*
X-188308Y277195D01*
X-188177Y276900D01*
X-188046Y276637D01*
X-187915Y276441D01*
X-187816Y276244D01*
X-187718Y276113D01*
X-187652Y276014D01*
X-187619Y275981D01*
X-187587Y275949D01*
X-187324Y275653D01*
X-187029Y275424D01*
X-186734Y275194D01*
X-186439Y274997D01*
X-185881Y274702D01*
X-185323Y274505D01*
X-184864Y274407D01*
X-184471Y274341D01*
X-184339Y274309D01*
X-184143D01*
X-183782Y274341D01*
X-183421Y274374D01*
X-182732Y274571D01*
X-182142Y274833D01*
X-181617Y275161D01*
X-181223Y275489D01*
X-180895Y275752D01*
X-180699Y275949D01*
X-180666Y275981D01*
X-180633Y276014D01*
X-180371Y276375D01*
X-180141Y276736D01*
X-179780Y277556D01*
X-179518Y278441D01*
X-179354Y279294D01*
X-179288Y279688D01*
X-179223Y280049D01*
X-179190Y280409D01*
Y280672D01*
X-179157Y280934D01*
Y281098D01*
Y281229D01*
Y281262D01*
X-179190Y281918D01*
X-179223Y282541D01*
X-179288Y283099D01*
X-179387Y283624D01*
X-179485Y284083D01*
X-179583Y284509D01*
X-179715Y284903D01*
X-179846Y285264D01*
X-179977Y285559D01*
X-180108Y285821D01*
X-180207Y286051D01*
X-180305Y286215D01*
X-180403Y286379D01*
X-180469Y286477D01*
X-180535Y286510D01*
Y286543D01*
X-180797Y286838D01*
X-181092Y287101D01*
X-181355Y287330D01*
X-181650Y287527D01*
X-182240Y287822D01*
X-182765Y288052D01*
X-183257Y288150D01*
X-183651Y288216D01*
X-183782Y288249D01*
D02*
G37*
%LPD*%
D24*
X-72638Y-238189D02*
G03*
X-72638Y-238189I-4921J0D01*
G01*
X-335630Y-156890D02*
G03*
X-335630Y-156890I-4921J0D01*
G01*
X361221Y-157480D02*
G03*
X361221Y-157480I-4921J0D01*
G01*
D25*
X-55118Y-290748D02*
Y-185630D01*
X159843D01*
Y-290748D02*
Y-185630D01*
X-55118Y-290748D02*
X159843D01*
X-56496Y310433D02*
X58465D01*
X-56496Y205315D02*
Y310433D01*
Y205315D02*
X58465D01*
Y310433D01*
X-390598Y-138051D02*
X-290504D01*
X-390598D02*
Y151043D01*
X-290504D01*
Y-138051D02*
Y151043D01*
X306252Y-138642D02*
X406346D01*
X306252D02*
Y150453D01*
X406346D01*
Y-138642D02*
Y150453D01*
%TF.MD5,4984c432088e1313debb62bb066cc389*%
M02*
