%TF.GenerationSoftware,Altium Limited,Altium Designer,21.8.1 (53)*%
G04 Layer_Color=255*
%FSLAX26Y26*%
%MOIN*%
%TF.SameCoordinates,2531CBD8-4BF0-4D0B-A877-44D4BE5F07E3*%
%TF.FilePolarity,Positive*%
%TF.FileFunction,Pads,Bot*%
%TF.Part,Single*%
G01*
G75*
%TA.AperFunction,ComponentPad*%
%ADD18C,0.061811*%
%ADD19R,0.061811X0.061811*%
%ADD20C,0.054685*%
%ADD21R,0.054685X0.054685*%
%TA.AperFunction,ViaPad*%
%ADD22C,0.039370*%
D18*
X102362Y-238189D02*
D03*
D19*
X2362D02*
D03*
X984Y257874D02*
D03*
D20*
X-340551Y106496D02*
D03*
Y6496D02*
D03*
X356299Y105906D02*
D03*
Y5906D02*
D03*
D21*
X-340551Y-93504D02*
D03*
X356299Y-94094D02*
D03*
D22*
X-50197Y-82677D02*
D03*
X-148622Y35433D02*
D03*
X-99409Y-23622D02*
D03*
Y35433D02*
D03*
Y94488D02*
D03*
X-50197Y-23622D02*
D03*
Y35433D02*
D03*
Y94488D02*
D03*
X-99409Y-82677D02*
D03*
X-984Y-23622D02*
D03*
Y35433D02*
D03*
Y-82677D02*
D03*
X-148622D02*
D03*
Y-23622D02*
D03*
Y94488D02*
D03*
X-984D02*
D03*
X146654Y-82677D02*
D03*
X97441D02*
D03*
X48228D02*
D03*
Y-23622D02*
D03*
Y35433D02*
D03*
Y94488D02*
D03*
X97441Y-23622D02*
D03*
Y35433D02*
D03*
Y94488D02*
D03*
X146654Y-23622D02*
D03*
Y35433D02*
D03*
Y94488D02*
D03*
%TF.MD5,29ea7d8a1f2814e1f06754d962e6e8eb*%
M02*
