M48
;Layer_Color=9474304
;FILE_FORMAT=2:5
INCH,LZ
;TYPE=PLATED
T1F00S00C0.01575
T2F00S00C0.02000
T3F00S00C0.03500
T4F00S00C0.04016
%
T01
X-0041379Y-00308
Y-0022115
Y-0015052
X-00262Y-00178
X-0031407Y-0023678
X-0020935
X-0010462
X-00142Y-00178
X-0020669Y-0011909
Y-0005217
Y0000689
Y0006594
Y00125
X-00262Y0018201
X-0031407Y00247
X-0020935
X-0010462
X-00142Y0018201
X000001Y00317
X-0041379
Y0022137
Y0015074
X-000499Y-0030678
X0005483
X0020955Y-0023678
X0031428
X0027689Y-00178
X0015689
X002122Y-0011909
Y-0005217
Y0000689
Y0006594
Y00125
X0015689Y0018201
X0010483Y00247
X0020955
X0031428
X0027689Y0018201
X0041417Y001437
X00414Y0023228
Y00317
Y-0015052
Y-0022115
Y-00308
T02
X-0014862Y-0008268
X-0009941
X-000502
X-0000098
X0004823
Y-0002362
X-0000098
X-000502
X-0009941
X-0014862
Y0003543
X-0009941
X-000502
X-0000098
X0004823
Y0009449
X-0000098
X-000502
X-0009941
X-0014862
X0009744
X0014665
Y0003543
X0009744
Y-0002362
X0014665
Y-0008268
X0009744
T03
X-0034055Y-000935
Y000065
Y001065
X003563Y0010591
Y0000591
Y-0009409
T04
X0000236Y-0023819
X0000098Y0025787
X0010236Y-0023819
M30
